<svg xmlns="http://www.w3.org/2000/svg" xmlns:xlink="http://www.w3.org/1999/xlink" width="1080" zoomAndPan="magnify" viewBox="0 0 810 809.999993" height="1080" preserveAspectRatio="xMidYMid meet" version="1.0"><defs><clipPath id="1393006b52"><path d="M 0 67.332031 L 810 67.332031 L 810 742.332031 L 0 742.332031 Z M 0 67.332031 " clip-rule="nonzero"/></clipPath></defs><g clip-path="url(#1393006b52)"><path fill="#c861c1" d="M 769.5 67.496094 L 40.5 67.496094 C 18.167969 67.496094 0 85.664062 0 107.996094 L 0 701.996094 C 0 724.328125 18.167969 742.496094 40.5 742.496094 L 769.5 742.496094 C 791.832031 742.496094 810 724.328125 810 701.996094 L 810 107.996094 C 810 85.664062 791.832031 67.496094 769.5 67.496094 Z M 40.5 94.496094 L 769.5 94.496094 C 776.949219 94.496094 783 100.554688 783 107.996094 L 783 175.496094 L 27 175.496094 L 27 107.996094 C 27 100.554688 33.050781 94.496094 40.5 94.496094 Z M 769.5 715.496094 L 40.5 715.496094 C 33.050781 715.496094 27 709.4375 27 701.996094 L 27 202.496094 L 783 202.496094 L 783 701.996094 C 783 709.4375 776.949219 715.496094 769.5 715.496094 Z M 769.5 715.496094 " fill-opacity="1" fill-rule="nonzero"/></g><path fill="#c861c1" d="M 57.914062 144.578125 C 60.472656 147.003906 63.992188 148.496094 67.5 148.496094 C 71.007812 148.496094 74.511719 147.003906 77.085938 144.578125 C 78.296875 143.226562 79.246094 141.746094 79.917969 140.125 C 80.722656 138.503906 81 136.75 81 134.996094 C 81 131.480469 79.511719 127.976562 77.085938 125.410156 C 72.085938 120.414062 62.914062 120.414062 57.914062 125.410156 C 55.476562 127.976562 54 131.480469 54 134.996094 C 54 136.75 54.261719 138.503906 55.082031 140.125 C 55.753906 141.746094 56.703125 143.226562 57.914062 144.578125 Z M 57.914062 144.578125 " fill-opacity="1" fill-rule="nonzero"/><path fill="#c861c1" d="M 121.5 148.496094 C 125.007812 148.496094 128.511719 147.003906 131.085938 144.578125 C 131.625 143.902344 132.164062 143.226562 132.707031 142.417969 C 133.246094 141.746094 133.640625 140.933594 133.917969 140.125 C 134.328125 139.3125 134.589844 138.503906 134.722656 137.691406 C 134.867188 136.75 135 135.9375 135 134.996094 C 135 131.480469 133.511719 127.976562 131.085938 125.410156 C 125.957031 120.414062 116.914062 120.414062 111.914062 125.410156 C 109.476562 127.976562 108 131.480469 108 134.996094 C 108 138.503906 109.476562 142.015625 111.914062 144.578125 C 114.472656 147.003906 117.992188 148.496094 121.5 148.496094 Z M 121.5 148.496094 " fill-opacity="1" fill-rule="nonzero"/><path fill="#c861c1" d="M 175.5 148.496094 C 179.007812 148.496094 182.511719 147.003906 185.085938 144.578125 C 187.511719 142.015625 189 138.503906 189 134.996094 C 189 131.480469 187.511719 127.976562 185.085938 125.410156 C 179.957031 120.414062 170.914062 120.414062 165.914062 125.410156 C 163.476562 127.976562 162 131.480469 162 134.996094 C 162 138.503906 163.476562 142.015625 165.914062 144.578125 C 168.472656 147.003906 171.992188 148.496094 175.5 148.496094 Z M 175.5 148.496094 " fill-opacity="1" fill-rule="nonzero"/><path fill="#c861c1" d="M 283.5 526.496094 L 256.5 526.496094 L 256.5 323.996094 C 256.5 318.082031 252.648438 312.855469 247.007812 311.101562 C 241.3125 309.363281 235.234375 311.484375 231.875 316.347656 L 83.375 532.347656 C 80.539062 536.476562 80.222656 541.839844 82.554688 546.277344 C 84.890625 550.71875 89.492188 553.496094 94.5 553.496094 L 229.5 553.496094 L 229.5 593.996094 C 229.5 601.449219 235.539062 607.496094 243 607.496094 C 250.460938 607.496094 256.5 601.449219 256.5 593.996094 L 256.5 553.496094 L 283.5 553.496094 C 290.960938 553.496094 297 547.449219 297 539.996094 C 297 532.539062 290.960938 526.496094 283.5 526.496094 Z M 229.5 526.496094 L 120.167969 526.496094 L 229.5 367.460938 Z M 229.5 526.496094 " fill-opacity="1" fill-rule="nonzero"/><path fill="#c861c1" d="M 715.5 526.496094 L 688.5 526.496094 L 688.5 323.996094 C 688.5 318.082031 684.648438 312.855469 679.007812 311.101562 C 673.3125 309.363281 667.234375 311.484375 663.875 316.347656 L 515.375 532.347656 C 512.539062 536.476562 512.222656 541.839844 514.554688 546.277344 C 516.890625 550.71875 521.492188 553.496094 526.5 553.496094 L 661.5 553.496094 L 661.5 593.996094 C 661.5 601.449219 667.539062 607.496094 675 607.496094 C 682.460938 607.496094 688.5 601.449219 688.5 593.996094 L 688.5 553.496094 L 715.5 553.496094 C 722.960938 553.496094 729 547.449219 729 539.996094 C 729 532.539062 722.960938 526.496094 715.5 526.496094 Z M 661.5 526.496094 L 552.167969 526.496094 L 661.5 367.460938 Z M 661.5 526.496094 " fill-opacity="1" fill-rule="nonzero"/><path fill="#c861c1" d="M 445.5 310.496094 L 364.5 310.496094 C 342.167969 310.496094 324 328.664062 324 350.996094 L 324 566.996094 C 324 589.328125 342.167969 607.496094 364.5 607.496094 L 445.5 607.496094 C 467.832031 607.496094 486 589.328125 486 566.996094 L 486 350.996094 C 486 328.664062 467.832031 310.496094 445.5 310.496094 Z M 459 566.996094 C 459 574.4375 452.949219 580.496094 445.5 580.496094 L 364.5 580.496094 C 357.050781 580.496094 351 574.4375 351 566.996094 L 351 350.996094 C 351 343.554688 357.050781 337.496094 364.5 337.496094 L 445.5 337.496094 C 452.949219 337.496094 459 343.554688 459 350.996094 Z M 459 566.996094 " fill-opacity="1" fill-rule="nonzero"/></svg>