<svg xmlns="http://www.w3.org/2000/svg" xmlns:xlink="http://www.w3.org/1999/xlink" width="1080" zoomAndPan="magnify" viewBox="0 0 810 809.999993" height="1080" preserveAspectRatio="xMidYMid meet" version="1.0"><defs><clipPath id="542bdc7f05"><path d="M 472 480 L 668 480 L 668 694.0625 L 472 694.0625 Z M 472 480 " clip-rule="nonzero"/></clipPath><clipPath id="72ee5e043b"><path d="M 498 628 L 541 628 L 541 694.0625 L 498 694.0625 Z M 498 628 " clip-rule="nonzero"/></clipPath></defs><path fill="#80008b" d="M 624.828125 227.207031 L 470.492188 296.683594 L 444.464844 224.660156 L 607.558594 179.410156 L 624.828125 227.207031 " fill-opacity="1" fill-rule="nonzero"/><path fill="#000000" d="M 445.308594 225.09375 L 470.867188 295.8125 L 624.023438 226.863281 L 607.15625 180.191406 Z M 470.496094 297.328125 C 470.410156 297.328125 470.324219 297.308594 470.246094 297.277344 C 470.078125 297.207031 469.949219 297.070312 469.894531 296.902344 L 443.859375 224.878906 C 443.792969 224.707031 443.808594 224.523438 443.894531 224.363281 C 443.976562 224.203125 444.121094 224.085938 444.292969 224.039062 L 607.382812 178.792969 C 607.707031 178.699219 608.046875 178.875 608.160156 179.191406 L 625.4375 226.984375 C 625.550781 227.300781 625.402344 227.65625 625.097656 227.792969 L 470.761719 297.273438 C 470.675781 297.308594 470.585938 297.328125 470.496094 297.328125 " fill-opacity="1" fill-rule="nonzero"/><path fill="#ff96fb" d="M 656.335938 196.886719 L 619.742188 213.125 L 611.753906 191.027344 L 650.28125 180.121094 L 656.335938 196.886719 " fill-opacity="1" fill-rule="nonzero"/><path fill="#000000" d="M 612.59375 191.457031 L 620.113281 212.257812 L 655.527344 196.535156 L 649.875 180.902344 Z M 619.742188 213.769531 C 619.65625 213.769531 619.570312 213.757812 619.492188 213.722656 C 619.328125 213.648438 619.195312 213.515625 619.132812 213.347656 L 611.148438 191.246094 C 611.085938 191.074219 611.097656 190.890625 611.179688 190.734375 C 611.261719 190.570312 611.40625 190.453125 611.578125 190.402344 L 650.101562 179.5 C 650.429688 179.40625 650.769531 179.582031 650.886719 179.902344 L 656.945312 196.660156 C 657.058594 196.984375 656.910156 197.335938 656.597656 197.472656 L 620.007812 213.71875 C 619.917969 213.75 619.832031 213.769531 619.742188 213.769531 " fill-opacity="1" fill-rule="nonzero"/><path fill="#ff96fb" d="M 613.726562 196.484375 L 645.660156 186.433594 L 613.726562 196.484375 " fill-opacity="1" fill-rule="nonzero"/><path fill="#000000" d="M 613.726562 197.128906 C 613.457031 197.128906 613.199219 196.953125 613.113281 196.679688 C 613.007812 196.339844 613.191406 195.976562 613.535156 195.871094 L 645.464844 185.816406 C 645.804688 185.710938 646.167969 185.898438 646.273438 186.238281 C 646.382812 186.578125 646.195312 186.9375 645.855469 187.046875 L 613.921875 197.097656 C 613.855469 197.121094 613.789062 197.128906 613.726562 197.128906 " fill-opacity="1" fill-rule="nonzero"/><path fill="#ff96fb" d="M 615.535156 201.484375 L 639.492188 192.824219 L 615.535156 201.484375 " fill-opacity="1" fill-rule="nonzero"/><path fill="#000000" d="M 615.535156 202.125 C 615.273438 202.125 615.027344 201.960938 614.929688 201.703125 C 614.808594 201.367188 614.980469 201 615.316406 200.875 L 639.277344 192.214844 C 639.613281 192.09375 639.980469 192.269531 640.101562 192.601562 C 640.222656 192.9375 640.046875 193.308594 639.710938 193.429688 L 615.757812 202.089844 C 615.683594 202.113281 615.609375 202.125 615.535156 202.125 " fill-opacity="1" fill-rule="nonzero"/><path fill="#ff96fb" d="M 618.105469 208.585938 L 646.238281 197.082031 L 618.105469 208.585938 " fill-opacity="1" fill-rule="nonzero"/><path fill="#000000" d="M 618.105469 209.230469 C 617.847656 209.230469 617.609375 209.078125 617.503906 208.832031 C 617.375 208.5 617.53125 208.125 617.863281 207.988281 L 645.992188 196.484375 C 646.324219 196.347656 646.699219 196.507812 646.832031 196.835938 C 646.96875 197.164062 646.808594 197.539062 646.484375 197.675781 L 618.347656 209.183594 C 618.269531 209.214844 618.1875 209.230469 618.105469 209.230469 " fill-opacity="1" fill-rule="nonzero"/><path fill="#000000" d="M 388.085938 205.582031 L 434.957031 272 L 495.015625 238.125 L 440.488281 160.863281 Z M 434.765625 273.492188 C 434.566406 273.492188 434.367188 273.398438 434.242188 273.222656 L 386.691406 205.84375 C 386.5 205.574219 386.546875 205.203125 386.800781 204.984375 L 440.1875 159.421875 C 440.324219 159.304688 440.507812 159.253906 440.683594 159.273438 C 440.863281 159.296875 441.023438 159.394531 441.128906 159.542969 L 496.480469 237.96875 C 496.585938 238.117188 496.625 238.300781 496.582031 238.480469 C 496.542969 238.660156 496.429688 238.8125 496.269531 238.898438 L 435.085938 273.410156 C 434.984375 273.464844 434.875 273.492188 434.765625 273.492188 " fill-opacity="1" fill-rule="nonzero"/><path fill="#84005b" d="M 399.207031 193.433594 L 391.480469 198.882812 C 374.894531 210.589844 370.480469 233.523438 380.167969 252.605469 L 244.1875 352.847656 C 242.144531 354.347656 241.347656 356.71875 242.382812 358.1875 C 243.417969 359.648438 245.90625 359.695312 248.003906 358.28125 L 388.242188 264.046875 C 402.972656 279.585938 426.074219 283.117188 442.664062 271.402344 L 450.390625 265.957031 L 399.207031 193.433594 " fill-opacity="1" fill-rule="nonzero"/><path fill="#000000" d="M 399.050781 194.332031 L 391.851562 199.410156 C 375.652344 210.84375 370.980469 233.09375 380.742188 252.3125 C 380.886719 252.597656 380.804688 252.9375 380.550781 253.125 L 244.566406 353.363281 C 242.828125 354.652344 242.082031 356.644531 242.90625 357.816406 C 243.730469 358.984375 245.855469 358.953125 247.644531 357.746094 L 387.878906 263.515625 C 388.140625 263.339844 388.492188 263.378906 388.710938 263.605469 C 403.550781 279.257812 426.085938 282.316406 442.292969 270.875 L 449.492188 265.796875 Z M 244.871094 359.957031 C 243.617188 359.957031 242.511719 359.488281 241.855469 358.558594 C 240.609375 356.789062 241.464844 354.054688 243.804688 352.332031 L 379.351562 252.410156 C 374.757812 243.109375 373.332031 232.632812 375.339844 222.851562 C 377.40625 212.773438 383.007812 204.078125 391.109375 198.359375 L 398.832031 192.90625 C 398.96875 192.808594 399.148438 192.769531 399.3125 192.796875 C 399.480469 192.828125 399.632812 192.921875 399.726562 193.0625 L 450.914062 265.582031 C 451.121094 265.871094 451.050781 266.277344 450.757812 266.480469 L 443.035156 271.933594 C 434.925781 277.652344 424.855469 280.015625 414.664062 278.585938 C 404.773438 277.195312 395.378906 272.335938 388.152344 264.886719 L 248.363281 358.816406 C 247.226562 359.582031 245.988281 359.957031 244.871094 359.957031 " fill-opacity="1" fill-rule="nonzero"/><path fill="#ff96fb" d="M 487.761719 226.738281 L 451.328125 247.828125 L 487.761719 226.738281 " fill-opacity="1" fill-rule="nonzero"/><path fill="#000000" d="M 451.328125 248.464844 C 451.105469 248.464844 450.890625 248.351562 450.773438 248.148438 C 450.597656 247.835938 450.699219 247.445312 451.007812 247.269531 L 487.441406 226.175781 C 487.75 225.996094 488.140625 226.105469 488.324219 226.410156 C 488.5 226.71875 488.394531 227.113281 488.085938 227.289062 L 451.652344 248.378906 C 451.550781 248.4375 451.441406 248.464844 451.328125 248.464844 " fill-opacity="1" fill-rule="nonzero"/><path fill="#ff96fb" d="M 484.046875 221.472656 L 459.730469 235.550781 L 484.046875 221.472656 " fill-opacity="1" fill-rule="nonzero"/><path fill="#000000" d="M 459.730469 236.195312 C 459.511719 236.195312 459.292969 236.082031 459.171875 235.875 C 458.996094 235.566406 459.097656 235.171875 459.40625 234.996094 L 483.722656 220.917969 C 484.03125 220.738281 484.425781 220.84375 484.605469 221.152344 C 484.78125 221.460938 484.675781 221.855469 484.371094 222.03125 L 460.054688 236.109375 C 459.953125 236.167969 459.839844 236.195312 459.730469 236.195312 " fill-opacity="1" fill-rule="nonzero"/><path fill="#ff96fb" d="M 469.191406 200.425781 L 446.359375 216.605469 L 469.191406 200.425781 " fill-opacity="1" fill-rule="nonzero"/><path fill="#000000" d="M 446.363281 217.25 C 446.160156 217.25 445.957031 217.152344 445.835938 216.980469 C 445.628906 216.6875 445.703125 216.285156 445.988281 216.082031 L 468.824219 199.898438 C 469.109375 199.691406 469.511719 199.761719 469.71875 200.050781 C 469.921875 200.34375 469.855469 200.742188 469.566406 200.949219 L 446.734375 217.132812 C 446.621094 217.210938 446.492188 217.25 446.363281 217.25 " fill-opacity="1" fill-rule="nonzero"/><path fill="#ff96fb" d="M 458.046875 184.640625 L 425.566406 211.328125 L 458.046875 184.640625 " fill-opacity="1" fill-rule="nonzero"/><path fill="#000000" d="M 425.566406 211.96875 C 425.378906 211.96875 425.195312 211.890625 425.066406 211.734375 C 424.84375 211.460938 424.882812 211.054688 425.160156 210.828125 L 457.640625 184.144531 C 457.914062 183.914062 458.320312 183.957031 458.546875 184.230469 C 458.769531 184.503906 458.734375 184.910156 458.457031 185.136719 L 425.972656 211.824219 C 425.855469 211.925781 425.710938 211.96875 425.566406 211.96875 " fill-opacity="1" fill-rule="nonzero"/><path fill="#ff96fb" d="M 450.625 174.109375 L 427.914062 192.769531 L 450.625 174.109375 " fill-opacity="1" fill-rule="nonzero"/><path fill="#000000" d="M 427.910156 193.421875 C 427.722656 193.421875 427.542969 193.335938 427.414062 193.183594 C 427.183594 192.90625 427.226562 192.5 427.503906 192.277344 L 450.210938 173.621094 C 450.484375 173.390625 450.890625 173.433594 451.121094 173.707031 C 451.34375 173.980469 451.304688 174.386719 451.027344 174.613281 L 428.320312 193.273438 C 428.199219 193.371094 428.054688 193.421875 427.910156 193.421875 " fill-opacity="1" fill-rule="nonzero"/><path fill="#80008b" d="M 610.300781 693.492188 L 472.78125 693.492188 L 472.78125 481.082031 L 610.300781 481.082031 C 664.394531 508.945312 683.117188 577.089844 650.847656 628.671875 L 610.300781 693.492188 " fill-opacity="1" fill-rule="nonzero"/><g clip-path="url(#542bdc7f05)"><path fill="#000000" d="M 610.300781 694.136719 C 610.183594 694.136719 610.0625 694.105469 609.957031 694.039062 C 609.65625 693.847656 609.566406 693.453125 609.753906 693.148438 L 650.300781 628.332031 C 665.585938 603.894531 669.972656 573.941406 662.335938 546.148438 C 654.71875 518.410156 635.699219 494.9375 610.140625 481.726562 L 473.425781 481.726562 L 473.425781 693.492188 C 473.425781 693.847656 473.136719 694.136719 472.78125 694.136719 C 472.421875 694.136719 472.136719 693.847656 472.136719 693.492188 L 472.136719 481.082031 C 472.136719 480.730469 472.421875 480.4375 472.78125 480.4375 L 610.300781 480.4375 C 610.402344 480.4375 610.503906 480.464844 610.59375 480.511719 C 636.535156 493.871094 655.847656 517.671875 663.582031 545.808594 C 671.3125 573.949219 666.871094 604.273438 651.394531 629.011719 L 610.847656 693.835938 C 610.726562 694.027344 610.511719 694.136719 610.300781 694.136719 " fill-opacity="1" fill-rule="nonzero"/></g><g clip-path="url(#72ee5e043b)"><path fill="#000000" d="M 499.207031 694.136719 C 499.09375 694.136719 498.972656 694.105469 498.867188 694.039062 C 498.566406 693.847656 498.476562 693.453125 498.664062 693.152344 L 539.210938 628.332031 C 539.402344 628.03125 539.800781 627.9375 540.101562 628.125 C 540.402344 628.3125 540.492188 628.710938 540.304688 629.015625 L 499.753906 693.835938 C 499.636719 694.027344 499.425781 694.136719 499.207031 694.136719 " fill-opacity="1" fill-rule="nonzero"/></g><path fill="#000000" d="M 634.660156 498.191406 L 535.558594 498.191406 L 535.558594 482.351562 L 615.410156 482.351562 L 634.660156 498.191406 " fill-opacity="1" fill-rule="nonzero"/><path fill="#000000" d="M 581.082031 648.902344 L 472.78125 648.902344 L 472.78125 501.585938 L 581.082031 501.585938 L 581.082031 648.902344 " fill-opacity="1" fill-rule="nonzero"/><path fill="#ff96fb" d="M 574.625 642.359375 L 472.78125 642.359375 L 472.78125 495.738281 L 574.625 495.738281 L 574.625 642.359375 " fill-opacity="1" fill-rule="nonzero"/><path fill="#000000" d="M 473.425781 641.714844 L 573.980469 641.714844 L 573.980469 496.382812 L 473.425781 496.382812 Z M 574.625 643.007812 L 472.78125 643.007812 C 472.425781 643.007812 472.136719 642.714844 472.136719 642.363281 L 472.136719 495.738281 C 472.136719 495.378906 472.425781 495.09375 472.78125 495.09375 L 574.625 495.09375 C 574.984375 495.09375 575.269531 495.378906 575.269531 495.738281 L 575.269531 642.363281 C 575.269531 642.714844 574.984375 643.007812 574.625 643.007812 " fill-opacity="1" fill-rule="nonzero"/><path fill="#000000" d="M 563.941406 535.179688 L 563.949219 535.179688 Z M 559.394531 522.667969 C 556.375 522.667969 552.921875 526.613281 551.523438 531.90625 C 549.996094 537.699219 551.40625 543.300781 554.601562 544.148438 C 557.796875 544.996094 561.789062 540.808594 563.316406 535.015625 C 564.847656 529.222656 563.4375 523.617188 560.242188 522.773438 C 559.964844 522.699219 559.683594 522.667969 559.394531 522.667969 Z M 555.480469 545.546875 C 555.074219 545.546875 554.671875 545.496094 554.277344 545.390625 C 550.269531 544.335938 548.515625 538.265625 550.28125 531.578125 C 552.046875 524.882812 556.566406 520.476562 560.570312 521.53125 C 564.574219 522.585938 566.332031 528.652344 564.566406 535.34375 C 562.976562 541.371094 559.148438 545.546875 555.480469 545.546875 " fill-opacity="1" fill-rule="nonzero"/><path fill="#000000" d="M 540.78125 517.757812 C 539.496094 517.757812 538.105469 518.460938 536.78125 519.796875 C 535.0625 521.527344 533.695312 524.085938 532.929688 526.996094 C 531.402344 532.789062 532.808594 538.398438 536.003906 539.238281 C 539.199219 540.085938 543.195312 535.902344 544.722656 530.113281 C 545.492188 527.195312 545.5625 524.296875 544.925781 521.945312 C 544.320312 519.714844 543.15625 518.265625 541.644531 517.867188 C 541.367188 517.796875 541.078125 517.757812 540.78125 517.757812 Z M 536.886719 540.644531 C 536.480469 540.644531 536.074219 540.59375 535.675781 540.488281 C 531.671875 539.425781 529.917969 533.359375 531.679688 526.667969 C 532.507812 523.539062 533.992188 520.777344 535.867188 518.886719 C 537.832031 516.90625 540 516.101562 541.972656 516.625 C 543.949219 517.144531 545.4375 518.914062 546.167969 521.605469 C 546.867188 524.171875 546.792969 527.3125 545.96875 530.4375 C 544.378906 536.464844 540.554688 540.644531 536.886719 540.644531 " fill-opacity="1" fill-rule="nonzero"/><path fill="#000000" d="M 545.5625 551.867188 C 544.617188 551.867188 543.660156 551.742188 542.722656 551.492188 C 537.246094 550.050781 533.878906 544.78125 535.207031 539.742188 C 535.296875 539.402344 535.648438 539.191406 535.996094 539.285156 C 536.339844 539.378906 536.546875 539.726562 536.453125 540.074219 C 535.308594 544.421875 538.261719 548.988281 543.046875 550.25 C 545.375 550.863281 547.777344 550.613281 549.8125 549.546875 C 551.835938 548.484375 553.25 546.746094 553.804688 544.652344 C 553.894531 544.304688 554.246094 544.105469 554.589844 544.191406 C 554.933594 544.28125 555.136719 544.636719 555.050781 544.980469 C 554.402344 547.429688 552.753906 549.457031 550.414062 550.6875 C 548.921875 551.46875 547.257812 551.867188 545.5625 551.867188 " fill-opacity="1" fill-rule="nonzero"/><path fill="#000000" d="M 534.636719 556.417969 L 526.550781 612.761719 L 547.320312 559.765625 L 542.652344 551.75 Z M 525.128906 618.808594 C 525.070312 618.808594 525.019531 618.804688 524.960938 618.789062 C 524.648438 618.703125 524.441406 618.398438 524.488281 618.074219 L 533.40625 555.929688 C 533.433594 555.734375 533.550781 555.5625 533.71875 555.464844 L 542.558594 550.316406 C 542.867188 550.140625 543.257812 550.242188 543.441406 550.550781 L 548.589844 559.386719 C 548.6875 559.558594 548.703125 559.761719 548.632812 559.945312 L 525.726562 618.398438 C 525.628906 618.652344 525.382812 618.808594 525.128906 618.808594 " fill-opacity="1" fill-rule="nonzero"/><path fill="#000000" d="M 525.125 618.808594 C 525.070312 618.808594 525.015625 618.804688 524.960938 618.789062 C 524.617188 618.699219 524.410156 618.34375 524.503906 618.003906 L 542.257812 550.710938 C 542.347656 550.363281 542.699219 550.160156 543.046875 550.25 C 543.386719 550.34375 543.59375 550.691406 543.503906 551.039062 L 525.746094 618.328125 C 525.667969 618.621094 525.410156 618.808594 525.125 618.808594 " fill-opacity="1" fill-rule="nonzero"/><path fill="#ff96fb" d="M 490 619.988281 L 490 571.339844 L 557.410156 571.339844 L 557.410156 619.988281 L 490 619.988281 " fill-opacity="1" fill-rule="nonzero"/><path fill="#000000" d="M 557.410156 620.628906 C 557.054688 620.628906 556.765625 620.34375 556.765625 619.988281 L 556.765625 571.984375 L 490.644531 571.984375 L 490.644531 619.988281 C 490.644531 620.34375 490.355469 620.628906 490 620.628906 C 489.644531 620.628906 489.355469 620.34375 489.355469 619.988281 L 489.355469 571.339844 C 489.355469 570.984375 489.644531 570.695312 490 570.695312 L 557.410156 570.695312 C 557.765625 570.695312 558.054688 570.984375 558.054688 571.339844 L 558.054688 619.988281 C 558.054688 620.34375 557.765625 620.628906 557.410156 620.628906 " fill-opacity="1" fill-rule="nonzero"/><path fill="#ffffff" d="M 361.769531 310.253906 L 466.679688 343.976562 L 457.410156 373.996094 L 370.050781 337.167969 L 361.769531 310.253906 " fill-opacity="1" fill-rule="nonzero"/><path fill="#84005b" d="M 419.152344 382.117188 L 440.84375 327.570312 L 539.863281 366.941406 L 518.171875 421.492188 L 419.152344 382.117188 " fill-opacity="1" fill-rule="nonzero"/><path fill="#000000" d="M 419.992188 381.753906 L 517.8125 420.652344 L 539.027344 367.296875 L 441.207031 328.402344 Z M 518.167969 422.132812 C 518.09375 422.132812 518.011719 422.117188 517.933594 422.089844 L 418.914062 382.714844 C 418.757812 382.652344 418.628906 382.527344 418.5625 382.371094 C 418.496094 382.214844 418.492188 382.039062 418.558594 381.878906 L 440.246094 327.332031 C 440.378906 326.996094 440.75 326.835938 441.082031 326.964844 L 540.101562 366.339844 C 540.429688 366.472656 540.59375 366.84375 540.460938 367.175781 L 518.769531 421.726562 C 518.707031 421.886719 518.582031 422.011719 518.429688 422.082031 C 518.347656 422.113281 518.261719 422.132812 518.167969 422.132812 " fill-opacity="1" fill-rule="nonzero"/><path fill="#84005b" d="M 489.714844 359.777344 L 484.359375 398.921875 C 477.625 401.226562 472.78125 407.605469 472.78125 415.121094 C 472.78125 420.976562 475.722656 426.144531 480.207031 429.234375 L 473.046875 481.589844 L 611.804688 481.589844 L 611.804688 359.777344 L 489.714844 359.777344 " fill-opacity="1" fill-rule="nonzero"/><path fill="#000000" d="M 611.804688 482.230469 L 473.046875 482.230469 C 472.859375 482.230469 472.683594 482.152344 472.558594 482.011719 C 472.4375 481.871094 472.382812 481.683594 472.40625 481.5 L 479.523438 429.535156 C 474.890625 426.191406 472.136719 420.832031 472.136719 415.121094 C 472.136719 407.65625 476.796875 401.007812 483.773438 398.445312 L 484.613281 392.328125 C 484.660156 391.976562 484.980469 391.730469 485.335938 391.777344 C 485.6875 391.828125 485.933594 392.152344 485.886719 392.503906 L 484.996094 399.007812 C 484.960938 399.246094 484.796875 399.449219 484.566406 399.527344 C 477.902344 401.8125 473.425781 408.078125 473.425781 415.121094 C 473.425781 420.546875 476.101562 425.621094 480.574219 428.707031 C 480.773438 428.839844 480.882812 429.078125 480.847656 429.324219 L 473.785156 480.945312 L 611.160156 480.945312 L 611.160156 360.421875 L 523.011719 360.421875 C 522.65625 360.421875 522.367188 360.132812 522.367188 359.777344 C 522.367188 359.421875 522.65625 359.132812 523.011719 359.132812 L 611.804688 359.132812 C 612.15625 359.132812 612.449219 359.421875 612.449219 359.777344 L 612.449219 481.589844 C 612.449219 481.945312 612.15625 482.230469 611.804688 482.230469 " fill-opacity="1" fill-rule="nonzero"/><path fill="#ff96fb" d="M 544.984375 491.558594 L 479.570312 491.558594 L 492.394531 395.960938 L 561.007812 395.960938 L 544.984375 491.558594 " fill-opacity="1" fill-rule="nonzero"/><path fill="#000000" d="M 480.308594 490.914062 L 544.433594 490.914062 L 560.246094 396.605469 L 492.957031 396.605469 Z M 544.980469 492.203125 L 479.574219 492.203125 C 479.390625 492.203125 479.210938 492.121094 479.089844 491.984375 C 478.96875 491.84375 478.910156 491.65625 478.933594 491.472656 L 491.753906 395.878906 C 491.796875 395.558594 492.070312 395.316406 492.394531 395.316406 L 561.007812 395.316406 C 561.199219 395.316406 561.375 395.402344 561.5 395.546875 C 561.621094 395.691406 561.675781 395.886719 561.640625 396.070312 L 545.617188 491.664062 C 545.566406 491.976562 545.296875 492.203125 544.980469 492.203125 " fill-opacity="1" fill-rule="nonzero"/><path fill="#ff96fb" d="M 632.324219 492.34375 L 511.246094 492.34375 L 511.246094 476.503906 L 613.089844 476.503906 L 632.324219 492.34375 " fill-opacity="1" fill-rule="nonzero"/><path fill="#000000" d="M 511.886719 491.699219 L 630.527344 491.699219 L 612.859375 477.148438 L 511.886719 477.148438 Z M 632.320312 492.988281 L 511.246094 492.988281 C 510.886719 492.988281 510.597656 492.703125 510.597656 492.34375 L 510.597656 476.503906 C 510.597656 476.152344 510.886719 475.859375 511.246094 475.859375 L 613.089844 475.859375 C 613.238281 475.859375 613.382812 475.914062 613.5 476.007812 L 632.730469 491.851562 C 632.941406 492.019531 633.019531 492.308594 632.925781 492.5625 C 632.839844 492.820312 632.59375 492.988281 632.320312 492.988281 " fill-opacity="1" fill-rule="nonzero"/><path fill="#000000" d="M 540.546875 439.300781 C 532.578125 439.300781 525.53125 433.945312 523.417969 426.265625 C 523.324219 425.921875 523.519531 425.570312 523.863281 425.476562 C 524.207031 425.378906 524.5625 425.578125 524.65625 425.921875 C 526.621094 433.042969 533.15625 438.011719 540.546875 438.011719 C 546.335938 438.011719 551.769531 434.921875 554.730469 429.9375 C 554.910156 429.632812 555.304688 429.53125 555.609375 429.714844 C 555.917969 429.894531 556.015625 430.289062 555.832031 430.59375 C 552.644531 435.964844 546.785156 439.300781 540.546875 439.300781 " fill-opacity="1" fill-rule="nonzero"/><path fill="#ff96fb" d="M 501.589844 395.964844 L 492.375 395.964844 L 520.285156 358.074219 L 527.066406 359.78125 L 501.589844 395.964844 " fill-opacity="1" fill-rule="nonzero"/><path fill="#000000" d="M 493.648438 395.320312 L 501.257812 395.320312 L 526.003906 360.175781 L 520.550781 358.800781 Z M 501.589844 396.609375 L 492.375 396.609375 C 492.132812 396.609375 491.910156 396.472656 491.800781 396.253906 C 491.6875 396.035156 491.710938 395.777344 491.855469 395.585938 L 519.769531 357.691406 C 519.925781 357.480469 520.191406 357.382812 520.445312 357.445312 L 527.226562 359.152344 C 527.433594 359.207031 527.601562 359.355469 527.671875 359.554688 C 527.746094 359.753906 527.71875 359.976562 527.597656 360.148438 L 502.117188 396.335938 C 501.996094 396.503906 501.804688 396.609375 501.589844 396.609375 " fill-opacity="1" fill-rule="nonzero"/><path fill="#ff96fb" d="M 560.917969 395.960938 L 549.722656 395.960938 L 587.371094 359.78125 L 598.570312 359.78125 L 560.917969 395.960938 " fill-opacity="1" fill-rule="nonzero"/><path fill="#000000" d="M 551.320312 395.320312 L 560.660156 395.320312 L 596.964844 360.425781 L 587.632812 360.425781 Z M 560.917969 396.609375 L 549.71875 396.609375 C 549.457031 396.609375 549.21875 396.453125 549.117188 396.203125 C 549.023438 395.960938 549.085938 395.683594 549.273438 395.5 L 586.925781 359.316406 C 587.042969 359.199219 587.203125 359.140625 587.371094 359.140625 L 598.570312 359.140625 C 598.828125 359.140625 599.0625 359.296875 599.164062 359.542969 C 599.261719 359.785156 599.203125 360.0625 599.011719 360.242188 L 561.363281 396.429688 C 561.242188 396.546875 561.082031 396.609375 560.917969 396.609375 " fill-opacity="1" fill-rule="nonzero"/><path fill="#80008b" d="M 435.726562 424.125 C 435.632812 424.125 435.539062 424.105469 435.445312 424.0625 C 435.128906 423.90625 434.992188 423.519531 435.148438 423.199219 L 441.761719 409.589844 C 442.851562 407.347656 441.914062 404.636719 439.671875 403.546875 L 371.261719 370.3125 C 369.023438 369.226562 366.3125 370.164062 365.222656 372.40625 L 358.609375 386.015625 C 358.457031 386.335938 358.070312 386.46875 357.75 386.316406 C 357.429688 386.160156 357.296875 385.773438 357.453125 385.453125 L 364.0625 371.84375 C 365.460938 368.960938 368.949219 367.757812 371.828125 369.15625 L 440.230469 402.390625 C 443.117188 403.789062 444.320312 407.269531 442.917969 410.152344 L 436.308594 423.761719 C 436.195312 423.992188 435.96875 424.125 435.726562 424.125 " fill-opacity="1" fill-rule="nonzero"/><path fill="#80008b" d="M 364.503906 389.523438 C 364.410156 389.523438 364.316406 389.503906 364.222656 389.460938 C 363.90625 389.304688 363.769531 388.917969 363.925781 388.601562 L 372.796875 370.34375 C 372.953125 370.019531 373.335938 369.890625 373.65625 370.042969 C 373.976562 370.199219 374.113281 370.585938 373.957031 370.90625 L 365.085938 389.164062 C 364.972656 389.390625 364.746094 389.523438 364.503906 389.523438 " fill-opacity="1" fill-rule="nonzero"/><path fill="#80008b" d="M 370.980469 392.671875 C 370.886719 392.671875 370.789062 392.652344 370.699219 392.605469 C 370.378906 392.449219 370.246094 392.066406 370.402344 391.746094 L 379.269531 373.488281 C 379.425781 373.167969 379.8125 373.035156 380.128906 373.191406 C 380.449219 373.347656 380.585938 373.734375 380.429688 374.050781 L 371.5625 392.308594 C 371.449219 392.539062 371.21875 392.671875 370.980469 392.671875 " fill-opacity="1" fill-rule="nonzero"/><path fill="#80008b" d="M 377.457031 395.816406 C 377.359375 395.816406 377.265625 395.792969 377.175781 395.75 C 376.851562 395.59375 376.722656 395.210938 376.875 394.890625 L 385.746094 376.636719 C 385.898438 376.3125 386.285156 376.183594 386.605469 376.335938 C 386.925781 376.492188 387.058594 376.878906 386.902344 377.199219 L 378.035156 395.453125 C 377.925781 395.683594 377.691406 395.816406 377.457031 395.816406 " fill-opacity="1" fill-rule="nonzero"/><path fill="#80008b" d="M 383.929688 398.960938 C 383.835938 398.960938 383.738281 398.941406 383.648438 398.894531 C 383.332031 398.742188 383.195312 398.355469 383.351562 398.035156 L 392.21875 379.78125 C 392.378906 379.460938 392.761719 379.324219 393.082031 379.484375 C 393.402344 379.640625 393.53125 380.023438 393.378906 380.34375 L 384.507812 398.597656 C 384.398438 398.828125 384.167969 398.960938 383.929688 398.960938 " fill-opacity="1" fill-rule="nonzero"/><path fill="#80008b" d="M 390.402344 402.109375 C 390.308594 402.109375 390.214844 402.085938 390.121094 402.042969 C 389.804688 401.886719 389.671875 401.5 389.824219 401.183594 L 398.695312 382.925781 C 398.851562 382.605469 399.234375 382.472656 399.554688 382.625 C 399.875 382.78125 400.007812 383.167969 399.851562 383.488281 L 390.984375 401.742188 C 390.871094 401.972656 390.644531 402.109375 390.402344 402.109375 " fill-opacity="1" fill-rule="nonzero"/><path fill="#80008b" d="M 396.878906 405.253906 C 396.785156 405.253906 396.691406 405.230469 396.601562 405.1875 C 396.277344 405.03125 396.148438 404.648438 396.300781 404.324219 L 405.167969 386.070312 C 405.324219 385.75 405.710938 385.617188 406.03125 385.773438 C 406.347656 385.929688 406.484375 386.316406 406.328125 386.632812 L 397.460938 404.886719 C 397.347656 405.117188 397.117188 405.253906 396.878906 405.253906 " fill-opacity="1" fill-rule="nonzero"/><path fill="#80008b" d="M 403.355469 408.398438 C 403.261719 408.398438 403.164062 408.375 403.074219 408.332031 C 402.753906 408.175781 402.621094 407.789062 402.773438 407.472656 L 411.644531 389.21875 C 411.800781 388.894531 412.183594 388.761719 412.503906 388.917969 C 412.824219 389.074219 412.957031 389.457031 412.804688 389.78125 L 403.933594 408.035156 C 403.824219 408.265625 403.589844 408.398438 403.355469 408.398438 " fill-opacity="1" fill-rule="nonzero"/><path fill="#80008b" d="M 409.828125 411.542969 C 409.734375 411.542969 409.636719 411.523438 409.546875 411.480469 C 409.230469 411.324219 409.09375 410.9375 409.25 410.617188 L 418.121094 392.363281 C 418.277344 392.042969 418.660156 391.90625 418.980469 392.0625 C 419.300781 392.21875 419.429688 392.605469 419.277344 392.921875 L 410.410156 411.179688 C 410.296875 411.40625 410.070312 411.542969 409.828125 411.542969 " fill-opacity="1" fill-rule="nonzero"/><path fill="#80008b" d="M 416.304688 414.6875 C 416.210938 414.6875 416.113281 414.667969 416.023438 414.621094 C 415.703125 414.46875 415.570312 414.082031 415.726562 413.761719 L 424.59375 395.507812 C 424.75 395.183594 425.136719 395.054688 425.457031 395.210938 C 425.773438 395.363281 425.90625 395.75 425.753906 396.070312 L 416.882812 414.328125 C 416.769531 414.554688 416.542969 414.6875 416.304688 414.6875 " fill-opacity="1" fill-rule="nonzero"/><path fill="#80008b" d="M 422.78125 417.832031 C 422.683594 417.832031 422.585938 417.8125 422.5 417.769531 C 422.175781 417.613281 422.046875 417.226562 422.199219 416.910156 L 431.070312 398.652344 C 431.222656 398.332031 431.609375 398.199219 431.929688 398.355469 C 432.246094 398.511719 432.382812 398.894531 432.226562 399.214844 L 423.359375 417.46875 C 423.246094 417.699219 423.015625 417.832031 422.78125 417.832031 " fill-opacity="1" fill-rule="nonzero"/><path fill="#80008b" d="M 429.253906 420.980469 C 429.15625 420.980469 429.0625 420.957031 428.972656 420.914062 C 428.652344 420.761719 428.519531 420.375 428.675781 420.054688 L 437.542969 401.796875 C 437.699219 401.476562 438.082031 401.34375 438.402344 401.5 C 438.726562 401.652344 438.855469 402.039062 438.703125 402.359375 L 429.832031 420.617188 C 429.722656 420.84375 429.492188 420.980469 429.253906 420.980469 " fill-opacity="1" fill-rule="nonzero"/><path fill="#ffffff" d="M 448.179688 369.804688 L 451.671875 391.472656 C 452.335938 395.585938 451.621094 399.792969 449.640625 403.460938 L 446.125 409.96875 C 444.925781 412.195312 442.753906 413.734375 440.257812 414.140625 L 439.828125 414.207031 C 435.214844 414.949219 431.773438 410.050781 434.035156 405.960938 L 437.503906 399.703125 C 438.109375 398.617188 438.328125 397.359375 438.128906 396.132812 L 434.246094 372.050781 C 434.242188 372.027344 434.257812 372.003906 434.285156 371.996094 L 448.125 369.765625 C 448.148438 369.761719 448.171875 369.78125 448.179688 369.804688 " fill-opacity="1" fill-rule="nonzero"/><path fill="#ffffff" d="M 411.507812 392.71875 C 410.878906 396.035156 407.675781 398.21875 404.359375 397.589844 L 404.199219 397.558594 L 403.976562 397.519531 C 400.324219 396.824219 397.929688 393.304688 398.621094 389.652344 L 404.285156 359.804688 L 404.472656 358.792969 C 404.535156 358.453125 404.867188 358.230469 405.207031 358.292969 L 416.976562 360.527344 C 417.316406 360.589844 417.539062 360.917969 417.476562 361.257812 L 411.507812 392.71875 " fill-opacity="1" fill-rule="nonzero"/><path fill="#ffffff" d="M 429.738281 365.832031 L 441.683594 368.476562 C 441.710938 368.480469 441.726562 368.507812 441.71875 368.53125 L 433.695312 404.78125 C 432.84375 408.625 429.03125 411.054688 425.183594 410.203125 L 424.839844 410.125 C 421.988281 409.496094 419.808594 407.183594 419.339844 404.296875 L 418.296875 397.820312 C 418.292969 397.796875 418.3125 397.773438 418.335938 397.765625 L 422.746094 397.054688 C 422.765625 397.054688 422.78125 397.039062 422.78125 397.019531 L 429.683594 365.863281 C 429.6875 365.84375 429.714844 365.828125 429.738281 365.832031 " fill-opacity="1" fill-rule="nonzero"/><path fill="#ffffff" d="M 418.527344 359.570312 L 430.472656 362.214844 C 430.5 362.222656 430.515625 362.246094 430.507812 362.273438 L 422.484375 398.519531 C 421.632812 402.363281 417.820312 404.792969 413.976562 403.9375 L 413.628906 403.863281 C 410.777344 403.230469 408.601562 400.921875 408.132812 398.035156 L 407.089844 391.558594 C 407.085938 391.535156 407.101562 391.507812 407.128906 391.507812 L 411.535156 390.796875 C 411.554688 390.792969 411.570312 390.777344 411.574219 390.761719 L 418.472656 359.605469 C 418.480469 359.582031 418.503906 359.566406 418.527344 359.570312 " fill-opacity="1" fill-rule="nonzero"/><path fill="#ffffff" d="M 399.367188 387.335938 L 393.730469 352.386719 C 393.730469 352.371094 393.738281 352.351562 393.753906 352.339844 L 416.304688 337.175781 C 416.316406 337.164062 416.335938 337.164062 416.347656 337.175781 L 431.234375 344.691406 C 440.054688 349.148438 446.203125 357.558594 447.777344 367.3125 L 450.941406 386.949219 C 450.945312 386.980469 450.925781 387.003906 450.898438 387.003906 L 399.414062 387.375 C 399.390625 387.375 399.367188 387.355469 399.367188 387.335938 " fill-opacity="1" fill-rule="nonzero"/><path fill="#ffffff" d="M 361.769531 310.253906 L 423.339844 340.707031 C 423.351562 340.714844 423.363281 340.726562 423.363281 340.742188 L 431.277344 389.847656 C 431.285156 389.886719 431.246094 389.917969 431.210938 389.898438 L 351.214844 350.3125 C 351.089844 350.25 350.964844 350.183594 350.839844 350.121094 C 337.292969 343.199219 335.597656 324.496094 347.589844 315.144531 C 352.730469 311.128906 361.769531 310.253906 361.769531 310.253906 " fill-opacity="1" fill-rule="nonzero"/><path fill="#ffffff" d="M 454.515625 389.011719 L 457.484375 391.042969 C 460.117188 392.839844 460.835938 396.40625 459.117188 399.089844 C 457.183594 402.09375 453.234375 403.050781 450.140625 401.265625 L 445.523438 398.59375 C 442.152344 396.644531 439.835938 393.28125 439.21875 389.441406 L 436.539062 372.832031 C 436.535156 372.804688 436.554688 372.78125 436.578125 372.777344 L 448.300781 370.886719 C 448.324219 370.886719 448.351562 370.902344 448.355469 370.925781 L 450.164062 382.15625 C 450.613281 384.941406 452.183594 387.421875 454.515625 389.011719 " fill-opacity="1" fill-rule="nonzero"/><path fill="#000000" d="M 438.917969 414.921875 C 436.902344 414.921875 435.015625 413.957031 433.828125 412.265625 C 432.441406 410.292969 432.308594 407.757812 433.472656 405.652344 L 436.941406 399.390625 C 437.472656 398.433594 437.664062 397.3125 437.492188 396.234375 L 436.429688 389.648438 C 436.375 389.296875 436.613281 388.964844 436.964844 388.910156 C 437.316406 388.851562 437.644531 389.089844 437.703125 389.445312 L 438.761719 396.03125 C 438.984375 397.394531 438.738281 398.808594 438.070312 400.015625 L 434.601562 406.273438 C 433.660156 407.976562 433.761719 409.9375 434.882812 411.527344 C 435.996094 413.113281 437.804688 413.882812 439.726562 413.570312 L 440.152344 413.5 C 442.4375 413.132812 444.460938 411.699219 445.558594 409.660156 L 449.074219 403.152344 C 450.976562 399.636719 451.671875 395.523438 451.035156 391.578125 L 449.105469 379.605469 C 449.046875 379.253906 449.289062 378.925781 449.640625 378.867188 C 449.988281 378.808594 450.320312 379.050781 450.375 379.402344 L 452.304688 391.371094 C 452.988281 395.59375 452.242188 399.996094 450.210938 403.765625 L 446.695312 410.273438 C 445.402344 412.660156 443.035156 414.339844 440.359375 414.773438 L 439.929688 414.839844 C 439.589844 414.898438 439.25 414.921875 438.917969 414.921875 " fill-opacity="1" fill-rule="nonzero"/><path fill="#000000" d="M 426.742188 411.015625 C 426.179688 411.015625 425.609375 410.957031 425.046875 410.828125 L 424.703125 410.753906 C 421.570312 410.058594 419.21875 407.566406 418.707031 404.398438 L 418.519531 403.238281 C 418.464844 402.886719 418.699219 402.554688 419.050781 402.5 C 419.40625 402.441406 419.734375 402.679688 419.792969 403.03125 L 419.980469 404.195312 C 420.402344 406.835938 422.367188 408.917969 424.980469 409.496094 L 425.324219 409.574219 C 427.019531 409.949219 428.753906 409.640625 430.21875 408.710938 C 431.675781 407.78125 432.691406 406.332031 433.066406 404.640625 L 439.269531 376.625 C 439.34375 376.277344 439.691406 376.0625 440.035156 376.136719 C 440.382812 376.214844 440.605469 376.558594 440.523438 376.90625 L 434.324219 404.917969 C 433.871094 406.949219 432.660156 408.679688 430.90625 409.796875 C 429.644531 410.601562 428.207031 411.015625 426.742188 411.015625 " fill-opacity="1" fill-rule="nonzero"/><path fill="#000000" d="M 415.53125 404.757812 C 414.96875 404.757812 414.402344 404.695312 413.835938 404.570312 L 413.492188 404.496094 C 410.363281 403.796875 408.007812 401.304688 407.496094 398.136719 L 407.417969 397.648438 C 407.363281 397.296875 407.597656 396.964844 407.949219 396.910156 C 408.304688 396.847656 408.632812 397.089844 408.691406 397.441406 L 408.769531 397.933594 C 409.195312 400.578125 411.15625 402.65625 413.769531 403.238281 L 414.113281 403.3125 C 415.808594 403.6875 417.542969 403.378906 419.007812 402.449219 C 420.46875 401.515625 421.480469 400.070312 421.855469 398.378906 L 427.128906 374.566406 C 427.207031 374.21875 427.550781 374 427.894531 374.078125 C 428.242188 374.152344 428.464844 374.496094 428.386719 374.84375 L 423.113281 398.65625 C 422.664062 400.683594 421.453125 402.417969 419.699219 403.535156 C 418.433594 404.339844 416.996094 404.757812 415.53125 404.757812 " fill-opacity="1" fill-rule="nonzero"/><path fill="#000000" d="M 453.496094 402.824219 C 452.410156 402.824219 451.308594 402.578125 450.277344 402.066406 C 449.960938 401.910156 449.828125 401.523438 449.988281 401.207031 C 450.144531 400.886719 450.53125 400.753906 450.851562 400.914062 C 453.585938 402.265625 456.898438 401.351562 458.550781 398.777344 C 460.121094 396.335938 459.480469 393.1875 457.121094 391.574219 L 454.152344 389.546875 C 451.6875 387.859375 450 385.207031 449.527344 382.257812 L 449.46875 381.894531 C 449.414062 381.542969 449.648438 381.214844 450 381.15625 C 450.351562 381.097656 450.683594 381.339844 450.742188 381.691406 L 450.800781 382.054688 C 451.21875 384.652344 452.707031 386.996094 454.878906 388.484375 L 457.847656 390.511719 C 460.785156 392.523438 461.582031 396.441406 459.65625 399.433594 C 458.253906 401.617188 455.910156 402.824219 453.496094 402.824219 " fill-opacity="1" fill-rule="nonzero"/><path fill="#000000" d="M 450.109375 382.4375 C 449.800781 382.4375 449.523438 382.210938 449.476562 381.894531 L 447.144531 367.445312 C 445.609375 357.90625 439.535156 349.621094 430.902344 345.277344 L 374.570312 316.9375 C 374.25 316.777344 374.125 316.386719 374.285156 316.074219 C 374.445312 315.753906 374.832031 315.628906 375.148438 315.785156 L 431.484375 344.125 C 440.484375 348.652344 446.816406 357.296875 448.417969 367.242188 L 450.746094 381.6875 C 450.804688 382.039062 450.5625 382.371094 450.210938 382.425781 C 450.175781 382.433594 450.140625 382.4375 450.109375 382.4375 " fill-opacity="1" fill-rule="nonzero"/><path fill="#000000" d="M 405.511719 398.34375 C 405.089844 398.34375 404.664062 398.304688 404.238281 398.222656 L 403.8125 398.140625 C 399.84375 397.390625 397.226562 393.546875 397.976562 389.578125 L 398.585938 386.3125 C 398.648438 385.964844 398.980469 385.726562 399.335938 385.796875 C 399.683594 385.859375 399.914062 386.199219 399.851562 386.546875 L 399.246094 389.816406 C 398.625 393.089844 400.78125 396.257812 404.050781 396.878906 L 404.480469 396.960938 C 405.914062 397.230469 407.371094 396.925781 408.578125 396.101562 C 409.789062 395.277344 410.605469 394.035156 410.875 392.597656 L 415.277344 369.414062 C 415.339844 369.0625 415.675781 368.832031 416.027344 368.902344 C 416.375 368.964844 416.609375 369.300781 416.539062 369.652344 L 412.144531 392.839844 C 411.808594 394.613281 410.796875 396.152344 409.304688 397.167969 C 408.167969 397.9375 406.855469 398.34375 405.511719 398.34375 " fill-opacity="1" fill-rule="nonzero"/><path fill="#000000" d="M 399.234375 387.070312 C 399.195312 387.070312 399.15625 387.0625 399.113281 387.058594 C 398.761719 386.992188 398.535156 386.652344 398.601562 386.304688 L 402.742188 364.457031 C 402.8125 364.109375 403.144531 363.878906 403.5 363.945312 C 403.847656 364.007812 404.074219 364.347656 404.011719 364.699219 L 399.867188 386.546875 C 399.808594 386.851562 399.539062 387.070312 399.234375 387.070312 " fill-opacity="1" fill-rule="nonzero"/><path fill="#84005b" d="M 385.835938 675.738281 L 360.070312 675.738281 L 360.070312 474.425781 L 433.6875 474.425781 L 433.6875 627.890625 C 433.6875 654.316406 412.265625 675.738281 385.835938 675.738281 " fill-opacity="1" fill-rule="nonzero"/><path fill="#000000" d="M 360.714844 675.09375 L 385.835938 675.09375 C 411.867188 675.09375 433.042969 653.917969 433.042969 627.890625 L 433.042969 475.070312 L 360.714844 475.070312 Z M 385.835938 676.382812 L 360.070312 676.382812 C 359.714844 676.382812 359.425781 676.097656 359.425781 675.738281 L 359.425781 474.425781 C 359.425781 474.074219 359.714844 473.785156 360.070312 473.785156 L 433.6875 473.785156 C 434.042969 473.785156 434.332031 474.074219 434.332031 474.425781 L 434.332031 627.890625 C 434.332031 654.628906 412.578125 676.382812 385.835938 676.382812 " fill-opacity="1" fill-rule="nonzero"/><path fill="#000000" d="M 300.527344 362.957031 L 539.105469 482.144531 C 539.105469 482.144531 508.195312 513.261719 448.046875 528.300781 C 387.898438 543.335938 298.09375 516.1875 298.09375 516.1875 L 300.527344 362.957031 " fill-opacity="1" fill-rule="nonzero"/><path fill="#ffffff" d="M 289.296875 422.625 L 311.074219 422.625 L 311.074219 381.8125 L 289.296875 381.8125 L 289.296875 422.625 " fill-opacity="1" fill-rule="nonzero"/><path fill="#ffffff" d="M 311.074219 381.726562 C 311.074219 393.277344 302.527344 402.636719 291.984375 402.636719 C 281.445312 402.636719 272.898438 393.277344 272.898438 381.726562 C 272.898438 370.183594 281.445312 360.820312 291.984375 360.820312 C 302.527344 360.820312 311.074219 370.183594 311.074219 381.726562 " fill-opacity="1" fill-rule="nonzero"/><path fill="#ff96fb" d="M 296.128906 393.613281 C 294.761719 394.871094 293 395.714844 291.007812 395.917969 C 286.574219 396.367188 282.574219 393.488281 281.476562 389.308594 L 296.128906 393.613281 " fill-opacity="1" fill-rule="nonzero"/><path fill="#000000" d="M 291.457031 403.28125 C 280.867188 403.28125 272.253906 393.871094 272.253906 382.308594 C 272.253906 370.746094 280.867188 361.335938 291.457031 361.335938 C 301.355469 361.335938 309.566406 369.433594 310.5625 380.171875 C 310.597656 380.523438 310.335938 380.839844 309.980469 380.871094 C 309.625 380.910156 309.3125 380.644531 309.28125 380.292969 C 308.347656 370.222656 300.683594 362.625 291.457031 362.625 C 281.578125 362.625 273.542969 371.457031 273.542969 382.308594 C 273.542969 393.160156 281.578125 401.988281 291.457031 401.992188 C 293.269531 401.992188 295.054688 401.695312 296.769531 401.113281 C 297.105469 401 297.472656 401.179688 297.585938 401.515625 C 297.703125 401.847656 297.519531 402.21875 297.183594 402.332031 C 295.335938 402.960938 293.410156 403.28125 291.457031 403.28125 " fill-opacity="1" fill-rule="nonzero"/><path fill="#000000" d="M 290.996094 374.164062 L 272.972656 383.035156 C 272.933594 382.511719 272.898438 381.980469 272.898438 381.441406 C 272.898438 370.054688 281.328125 360.820312 291.722656 360.820312 C 303.140625 360.820312 311.859375 370.511719 311.859375 381.898438 C 311.859375 382.671875 311.171875 383.429688 311.097656 384.179688 L 290.996094 374.164062 " fill-opacity="1" fill-rule="nonzero"/><path fill="#80008b" d="M 363.75 693.136719 L 133.324219 693.136719 L 185.257812 541.707031 L 383.222656 541.707031 L 383.222656 634.71875 L 363.75 693.136719 " fill-opacity="1" fill-rule="nonzero"/><path fill="#80008b" d="M 383.585938 546.199219 L 288.953125 576.835938 L 183.785156 545.890625 L 206.691406 479.28125 C 210.074219 469.894531 213.359375 460.46875 216.097656 450.878906 C 221.117188 433.296875 239.71875 420.535156 261.527344 420.535156 L 338.84375 420.535156 C 362.792969 420.535156 382.871094 435.921875 385.351562 456.179688 L 383.585938 546.199219 " fill-opacity="1" fill-rule="nonzero"/><path fill="#000000" d="M 383.585938 546.199219 L 383.59375 546.199219 Z M 184.613281 545.460938 L 288.945312 576.164062 L 382.953125 545.730469 L 384.707031 456.210938 C 382.234375 436.238281 362.527344 421.179688 338.84375 421.179688 L 261.527344 421.179688 C 240.167969 421.179688 221.738281 433.464844 216.71875 451.054688 C 213.914062 460.863281 210.53125 470.523438 207.296875 479.496094 Z M 288.953125 577.480469 C 288.890625 577.480469 288.832031 577.472656 288.773438 577.453125 L 183.601562 546.507812 C 183.433594 546.457031 183.292969 546.339844 183.210938 546.183594 C 183.132812 546.03125 183.117188 545.847656 183.175781 545.683594 L 206.082031 479.070312 C 209.3125 470.105469 212.6875 460.472656 215.480469 450.699219 C 220.65625 432.5625 239.59375 419.890625 261.527344 419.890625 L 338.84375 419.890625 C 363.195312 419.890625 383.460938 435.457031 385.992188 456.101562 C 385.992188 456.132812 385.992188 456.160156 385.992188 456.191406 L 384.230469 546.210938 C 384.226562 546.488281 384.046875 546.730469 383.785156 546.8125 L 289.152344 577.449219 C 289.085938 577.46875 289.019531 577.480469 288.953125 577.480469 " fill-opacity="1" fill-rule="nonzero"/><path fill="#ff96fb" d="M 313.75 424.765625 L 285.171875 424.765625 L 285.171875 408.617188 L 313.75 408.617188 L 313.75 424.765625 " fill-opacity="1" fill-rule="nonzero"/><path fill="#000000" d="M 285.816406 424.121094 L 313.109375 424.121094 L 313.109375 409.261719 L 285.816406 409.261719 Z M 313.75 425.40625 L 285.171875 425.40625 C 284.816406 425.40625 284.527344 425.121094 284.527344 424.765625 L 284.527344 408.617188 C 284.527344 408.257812 284.816406 407.972656 285.171875 407.972656 L 313.75 407.972656 C 314.109375 407.972656 314.394531 408.257812 314.394531 408.617188 L 314.394531 424.765625 C 314.394531 425.121094 314.109375 425.40625 313.75 425.40625 " fill-opacity="1" fill-rule="nonzero"/><path fill="#84005b" d="M 386.304688 675.738281 L 230.320312 675.738281 L 256.285156 575.085938 L 392.796875 575.085938 L 386.304688 675.738281 " fill-opacity="1" fill-rule="nonzero"/><path fill="#000000" d="M 386.304688 676.382812 L 230.320312 676.382812 C 230.121094 676.382812 229.933594 676.289062 229.8125 676.132812 C 229.6875 675.976562 229.644531 675.769531 229.695312 675.578125 L 255.664062 574.921875 C 255.738281 574.636719 255.992188 574.4375 256.285156 574.4375 L 392.796875 574.4375 C 393.15625 574.4375 393.441406 574.726562 393.441406 575.085938 C 393.441406 575.4375 393.15625 575.726562 392.796875 575.726562 L 256.785156 575.726562 L 231.152344 675.09375 L 386.304688 675.09375 C 386.664062 675.09375 386.949219 675.382812 386.949219 675.738281 C 386.949219 676.097656 386.664062 676.382812 386.304688 676.382812 " fill-opacity="1" fill-rule="nonzero"/><path fill="#ffffff" d="M 306.789062 546.273438 L 238.550781 577.421875 C 231.878906 580.464844 226.382812 585.601562 222.894531 592.050781 L 212.265625 611.699219 C 210.535156 614.898438 209.3125 618.347656 208.636719 621.925781 L 203.785156 647.609375 L 215.488281 649.820312 L 220.335938 624.132812 C 221.011719 620.558594 222.238281 617.105469 223.96875 613.90625 L 239.289062 585.589844 L 284.167969 599.746094 L 367.285156 563.417969 C 374.765625 559.902344 380.589844 553.757812 383.75 546.273438 L 306.789062 546.273438 " fill-opacity="1" fill-rule="nonzero"/><path fill="#ffffff" d="M 220.335938 624.132812 L 214.304688 656.09375 C 213.726562 659.152344 215.738281 662.101562 218.796875 662.679688 L 219.421875 662.796875 C 222.480469 663.375 225.429688 661.363281 226.007812 658.304688 L 232.042969 626.339844 C 232.71875 622.765625 233.941406 619.316406 235.671875 616.117188 L 251.675781 586.53125 L 239.972656 584.320312 L 223.96875 613.90625 C 222.238281 617.105469 221.011719 620.558594 220.335938 624.132812 " fill-opacity="1" fill-rule="nonzero"/><path fill="#ffffff" d="M 232.042969 626.339844 L 226.691406 654.675781 C 226.113281 657.734375 228.125 660.683594 231.1875 661.261719 L 231.808594 661.378906 C 234.871094 661.957031 237.816406 659.945312 238.394531 656.882812 L 243.746094 628.550781 C 244.417969 624.976562 245.644531 621.527344 247.375 618.324219 L 263.378906 588.742188 L 251.675781 586.53125 L 235.671875 616.117188 C 233.941406 619.316406 232.714844 622.765625 232.042969 626.339844 " fill-opacity="1" fill-rule="nonzero"/><path fill="#ffffff" d="M 243.742188 628.550781 L 240.375 646.390625 C 239.796875 649.449219 241.8125 652.398438 244.871094 652.976562 L 245.492188 653.09375 C 248.554688 653.675781 251.5 651.660156 252.078125 648.601562 L 255.449219 630.738281 C 256.09375 627.34375 258.25 624.425781 261.308594 622.816406 L 268.496094 619.039062 C 277.058594 614.539062 283.097656 606.371094 284.890625 596.863281 L 285.632812 592.941406 L 263.378906 588.742188 L 247.375 618.324219 C 245.644531 621.527344 244.417969 624.976562 243.742188 628.550781 " fill-opacity="1" fill-rule="nonzero"/><path fill="#000000" d="M 220.46875 663.539062 C 220.082031 663.539062 219.695312 663.503906 219.300781 663.429688 L 218.679688 663.3125 C 217.03125 663 215.601562 662.066406 214.65625 660.679688 C 213.710938 659.296875 213.359375 657.621094 213.671875 655.972656 L 219.707031 624.015625 C 220.394531 620.367188 221.636719 616.863281 223.402344 613.601562 L 235.789062 590.707031 C 235.957031 590.390625 236.347656 590.277344 236.660156 590.445312 C 236.972656 590.613281 237.089844 591.007812 236.921875 591.316406 L 224.535156 614.214844 C 222.835938 617.359375 221.632812 620.738281 220.972656 624.25 L 214.9375 656.214844 C 214.691406 657.527344 214.96875 658.851562 215.71875 659.957031 C 216.472656 661.054688 217.609375 661.800781 218.917969 662.046875 L 219.539062 662.164062 C 222.246094 662.671875 224.863281 660.890625 225.375 658.183594 L 231.410156 626.222656 C 232.097656 622.578125 233.339844 619.074219 235.105469 615.808594 L 247.148438 593.550781 C 247.316406 593.238281 247.707031 593.121094 248.019531 593.292969 C 248.332031 593.460938 248.449219 593.851562 248.277344 594.164062 L 236.238281 616.421875 C 234.535156 619.566406 233.335938 622.945312 232.675781 626.460938 L 226.640625 658.421875 C 226.070312 661.433594 223.429688 663.539062 220.46875 663.539062 " fill-opacity="1" fill-rule="nonzero"/><path fill="#000000" d="M 232.859375 662.125 C 232.472656 662.125 232.082031 662.085938 231.6875 662.011719 L 231.066406 661.894531 C 229.417969 661.585938 227.988281 660.648438 227.042969 659.265625 C 226.097656 657.875 225.75 656.207031 226.058594 654.554688 L 231.410156 626.222656 C 232.097656 622.578125 233.339844 619.074219 235.105469 615.808594 L 247.148438 593.550781 C 247.316406 593.238281 247.707031 593.121094 248.019531 593.292969 C 248.332031 593.460938 248.449219 593.851562 248.277344 594.164062 L 236.238281 616.421875 C 234.535156 619.566406 233.335938 622.945312 232.675781 626.460938 L 227.324219 654.792969 C 227.078125 656.105469 227.355469 657.433594 228.105469 658.539062 C 228.859375 659.636719 229.996094 660.382812 231.304688 660.628906 L 231.929688 660.75 C 234.632812 661.257812 237.25 659.472656 237.761719 656.765625 L 243.113281 628.429688 C 243.800781 624.789062 245.042969 621.28125 246.808594 618.019531 L 259.195312 595.125 C 259.363281 594.8125 259.757812 594.695312 260.066406 594.863281 C 260.378906 595.03125 260.496094 595.421875 260.328125 595.734375 L 247.941406 618.632812 C 246.242188 621.777344 245.042969 625.15625 244.378906 628.671875 L 239.027344 657.003906 C 238.460938 660.015625 235.816406 662.125 232.859375 662.125 " fill-opacity="1" fill-rule="nonzero"/><path fill="#000000" d="M 211.144531 649.542969 C 210.765625 649.542969 210.382812 649.507812 209.996094 649.4375 L 209.039062 649.257812 C 207.433594 648.953125 206.042969 648.046875 205.125 646.695312 C 204.203125 645.347656 203.863281 643.722656 204.167969 642.117188 L 208.003906 621.804688 C 208.691406 618.15625 209.933594 614.652344 211.703125 611.386719 L 220.992188 594.214844 C 225.386719 586.089844 232.433594 579.503906 240.835938 575.667969 L 346.554688 527.96875 C 346.878906 527.820312 347.261719 527.964844 347.40625 528.292969 C 347.554688 528.613281 347.410156 528.996094 347.085938 529.144531 L 241.371094 576.839844 C 233.222656 580.5625 226.386719 586.949219 222.125 594.828125 L 212.835938 612 C 211.132812 615.148438 209.933594 618.527344 209.269531 622.042969 L 205.433594 642.355469 C 205.195312 643.625 205.460938 644.90625 206.1875 645.96875 C 206.914062 647.03125 208.011719 647.753906 209.277344 647.988281 L 210.238281 648.171875 C 211.503906 648.410156 212.785156 648.144531 213.851562 647.417969 C 214.914062 646.691406 215.628906 645.59375 215.871094 644.328125 L 219.707031 624.015625 C 220.394531 620.367188 221.636719 616.863281 223.402344 613.601562 L 233.3125 595.28125 C 233.480469 594.96875 233.871094 594.855469 234.183594 595.023438 C 234.5 595.191406 234.613281 595.582031 234.445312 595.898438 L 224.535156 614.214844 C 222.835938 617.359375 221.632812 620.738281 220.972656 624.25 L 217.136719 644.566406 C 216.832031 646.167969 215.921875 647.558594 214.574219 648.480469 C 213.550781 649.179688 212.359375 649.542969 211.144531 649.542969 " fill-opacity="1" fill-rule="nonzero"/><path fill="#000000" d="M 246.550781 653.835938 C 246.160156 653.835938 245.765625 653.804688 245.375 653.726562 L 244.753906 653.609375 C 241.347656 652.96875 239.101562 649.675781 239.742188 646.273438 L 243.113281 628.429688 C 243.800781 624.785156 245.042969 621.28125 246.808594 618.019531 L 259.195312 595.125 C 259.363281 594.8125 259.757812 594.695312 260.066406 594.863281 C 260.378906 595.03125 260.496094 595.421875 260.328125 595.734375 L 247.941406 618.632812 C 246.242188 621.777344 245.042969 625.15625 244.378906 628.671875 L 241.007812 646.511719 C 240.496094 649.214844 242.285156 651.832031 244.992188 652.34375 L 245.613281 652.460938 C 246.925781 652.710938 248.25 652.433594 249.355469 651.679688 C 250.457031 650.929688 251.199219 649.792969 251.445312 648.480469 L 254.820312 630.621094 C 255.5 627.011719 257.757812 623.957031 261.007812 622.25 L 268.199219 618.46875 C 275.648438 614.550781 281.257812 607.664062 283.585938 599.574219 C 283.640625 599.390625 283.773438 599.242188 283.949219 599.167969 L 365.902344 563.367188 C 373.488281 559.792969 379.566406 553.605469 383 545.9375 C 383.144531 545.613281 383.527344 545.46875 383.851562 545.613281 C 384.175781 545.757812 384.320312 546.136719 384.175781 546.464844 C 380.613281 554.414062 374.3125 560.832031 366.433594 564.535156 L 284.738281 600.226562 C 282.265625 608.523438 276.46875 615.574219 268.796875 619.609375 L 261.609375 623.386719 C 258.707031 624.914062 256.691406 627.636719 256.085938 630.859375 L 252.710938 648.722656 C 252.402344 650.371094 251.464844 651.796875 250.078125 652.742188 C 249.023438 653.464844 247.804688 653.835938 246.550781 653.835938 " fill-opacity="1" fill-rule="nonzero"/><path fill="#000000" d="M 284.242188 600.25 C 284.203125 600.25 284.164062 600.246094 284.121094 600.238281 C 283.773438 600.171875 283.542969 599.835938 283.609375 599.484375 L 285.828125 587.730469 C 285.894531 587.382812 286.234375 587.152344 286.582031 587.21875 C 286.929688 587.285156 287.160156 587.621094 287.09375 587.972656 L 284.875 599.726562 C 284.816406 600.035156 284.546875 600.25 284.242188 600.25 " fill-opacity="1" fill-rule="nonzero"/><path fill="#ffffff" d="M 345.03125 632.359375 L 342.703125 611.464844 C 342.359375 608.402344 341.542969 605.414062 340.285156 602.597656 L 331.972656 584.003906 C 328.238281 575.644531 321.878906 568.734375 313.859375 564.3125 L 279.125 545.28125 L 184.050781 545.28125 C 183.875 545.671875 183.785156 545.890625 183.785156 545.890625 L 269.148438 584.488281 L 314.96875 573.757812 L 328.449219 603.917969 C 329.710938 606.730469 330.523438 609.722656 330.863281 612.789062 L 333.195312 633.683594 C 333.5625 636.949219 336.503906 639.304688 339.769531 638.941406 C 343.039062 638.578125 345.394531 635.632812 345.03125 632.359375 " fill-opacity="1" fill-rule="nonzero"/><path fill="#ffffff" d="M 330.863281 612.789062 L 334.527344 645.632812 C 334.894531 648.902344 332.539062 651.84375 329.269531 652.210938 C 326 652.578125 323.054688 650.21875 322.691406 646.953125 L 319.027344 614.105469 C 318.6875 611.042969 317.871094 608.050781 316.613281 605.238281 L 302.542969 573.765625 L 314.378906 572.445312 L 328.449219 603.917969 C 329.710938 606.730469 330.523438 609.722656 330.863281 612.789062 " fill-opacity="1" fill-rule="nonzero"/><path fill="#ffffff" d="M 319.027344 614.105469 L 322.28125 643.285156 C 322.644531 646.554688 320.292969 649.496094 317.023438 649.863281 C 313.753906 650.226562 310.808594 647.875 310.445312 644.605469 L 307.191406 615.425781 C 306.851562 612.363281 306.035156 609.371094 304.777344 606.558594 L 290.707031 575.085938 L 302.542969 573.765625 L 316.613281 605.238281 C 317.871094 608.050781 318.6875 611.042969 319.027344 614.105469 " fill-opacity="1" fill-rule="nonzero"/><path fill="#ffffff" d="M 307.191406 615.425781 L 309.261719 633.992188 C 309.625 637.261719 307.273438 640.207031 304.003906 640.566406 C 300.734375 640.933594 297.789062 638.582031 297.425781 635.3125 L 295.15625 614.972656 C 294.957031 613.175781 293.945312 611.5625 292.410156 610.605469 L 281.109375 603.527344 C 274.308594 599.265625 269.824219 592.132812 268.933594 584.15625 L 268.203125 577.59375 L 290.707031 575.085938 L 304.777344 606.558594 C 306.035156 609.371094 306.851562 612.363281 307.191406 615.425781 " fill-opacity="1" fill-rule="nonzero"/><path fill="#000000" d="M 328.597656 652.890625 C 327.105469 652.890625 325.671875 652.390625 324.488281 651.445312 C 323.113281 650.347656 322.246094 648.773438 322.050781 647.023438 L 318.386719 614.175781 C 318.050781 611.175781 317.257812 608.257812 316.027344 605.503906 L 305.355469 581.632812 C 305.210938 581.304688 305.355469 580.925781 305.679688 580.78125 C 306.007812 580.636719 306.386719 580.78125 306.53125 581.105469 L 317.203125 604.976562 C 318.488281 607.851562 319.316406 610.902344 319.667969 614.035156 L 323.332031 646.878906 C 323.488281 648.292969 324.183594 649.554688 325.292969 650.441406 C 326.402344 651.328125 327.785156 651.730469 329.195312 651.570312 C 330.609375 651.414062 331.871094 650.71875 332.757812 649.609375 C 333.640625 648.5 334.042969 647.113281 333.886719 645.703125 L 330.222656 612.855469 C 329.890625 609.855469 329.09375 606.9375 327.863281 604.183594 L 316.894531 579.648438 C 316.75 579.324219 316.898438 578.945312 317.222656 578.800781 C 317.546875 578.652344 317.925781 578.800781 318.070312 579.125 L 329.039062 603.65625 C 330.324219 606.53125 331.15625 609.578125 331.503906 612.714844 L 335.167969 645.5625 C 335.363281 647.3125 334.867188 649.035156 333.761719 650.414062 C 332.664062 651.789062 331.09375 652.65625 329.339844 652.851562 C 329.09375 652.878906 328.84375 652.890625 328.597656 652.890625 " fill-opacity="1" fill-rule="nonzero"/><path fill="#000000" d="M 316.351562 650.542969 C 314.859375 650.542969 313.425781 650.042969 312.242188 649.101562 C 310.867188 648 310 646.425781 309.804688 644.675781 L 306.550781 615.496094 C 306.214844 612.496094 305.421875 609.574219 304.1875 606.824219 L 293.222656 582.289062 C 293.078125 581.964844 293.222656 581.585938 293.550781 581.4375 C 293.875 581.296875 294.253906 581.441406 294.398438 581.765625 L 305.367188 606.296875 C 306.652344 609.171875 307.480469 612.21875 307.832031 615.355469 L 311.085938 644.535156 C 311.242188 645.941406 311.941406 647.207031 313.046875 648.09375 C 314.15625 648.980469 315.542969 649.378906 316.953125 649.222656 C 319.863281 648.898438 321.96875 646.265625 321.640625 643.355469 L 318.386719 614.175781 C 318.050781 611.175781 317.257812 608.257812 316.027344 605.503906 L 305.355469 581.632812 C 305.210938 581.304688 305.355469 580.925781 305.679688 580.78125 C 306.007812 580.636719 306.386719 580.78125 306.53125 581.105469 L 317.203125 604.976562 C 318.488281 607.851562 319.316406 610.902344 319.667969 614.035156 L 322.921875 643.214844 C 323.324219 646.828125 320.710938 650.101562 317.09375 650.503906 C 316.847656 650.53125 316.597656 650.542969 316.351562 650.542969 " fill-opacity="1" fill-rule="nonzero"/><path fill="#000000" d="M 339.109375 639.621094 C 335.792969 639.621094 332.929688 637.121094 332.554688 633.753906 L 330.222656 612.855469 C 329.890625 609.855469 329.09375 606.9375 327.863281 604.183594 L 319.019531 584.398438 C 318.875 584.078125 319.019531 583.695312 319.34375 583.550781 C 319.671875 583.40625 320.050781 583.550781 320.195312 583.875 L 329.039062 603.65625 C 330.328125 606.53125 331.15625 609.582031 331.503906 612.714844 L 333.835938 633.609375 C 334.15625 636.519531 336.796875 638.632812 339.703125 638.300781 C 342.609375 637.976562 344.714844 635.34375 344.390625 632.433594 L 342.058594 611.539062 C 341.726562 608.535156 340.929688 605.613281 339.699219 602.859375 L 331.386719 584.265625 C 327.730469 576.089844 321.398438 569.203125 313.550781 564.875 L 241.324219 525.300781 C 241.011719 525.128906 240.898438 524.738281 241.070312 524.425781 C 241.238281 524.113281 241.632812 523.996094 241.941406 524.171875 L 314.171875 563.75 C 322.261719 568.207031 328.792969 575.304688 332.5625 583.738281 L 340.875 602.332031 C 342.160156 605.214844 342.992188 608.257812 343.339844 611.394531 L 345.671875 632.292969 C 346.074219 635.910156 343.460938 639.175781 339.84375 639.582031 C 339.59375 639.609375 339.347656 639.621094 339.109375 639.621094 " fill-opacity="1" fill-rule="nonzero"/><path fill="#000000" d="M 303.339844 641.25 C 300.027344 641.25 297.160156 638.75 296.785156 635.382812 L 294.515625 615.046875 C 294.335938 613.429688 293.445312 612.011719 292.066406 611.148438 L 282.976562 605.457031 C 275.640625 600.859375 270.394531 593.398438 268.550781 584.949219 L 183.519531 546.476562 C 183.195312 546.332031 183.050781 545.949219 183.199219 545.625 C 183.34375 545.300781 183.726562 545.15625 184.050781 545.304688 L 269.375 583.910156 C 269.5625 583.996094 269.699219 584.164062 269.742188 584.367188 C 271.453125 592.609375 276.527344 599.894531 283.660156 604.363281 L 292.75 610.054688 C 294.460938 611.128906 295.574219 612.894531 295.796875 614.902344 L 298.066406 635.238281 C 298.390625 638.152344 301.027344 640.261719 303.933594 639.929688 C 306.84375 639.605469 308.945312 636.972656 308.621094 634.0625 L 306.550781 615.496094 C 306.214844 612.496094 305.421875 609.574219 304.1875 606.824219 L 293.222656 582.289062 C 293.078125 581.964844 293.222656 581.585938 293.550781 581.4375 C 293.875 581.296875 294.253906 581.441406 294.398438 581.765625 L 305.367188 606.296875 C 306.652344 609.175781 307.480469 612.222656 307.832031 615.355469 L 309.902344 633.917969 C 310.304688 637.535156 307.691406 640.804688 304.074219 641.210938 C 303.828125 641.234375 303.582031 641.25 303.339844 641.25 " fill-opacity="1" fill-rule="nonzero"/><path fill="#000000" d="M 269.085938 584.988281 C 268.761719 584.988281 268.480469 584.746094 268.445312 584.414062 L 267.117188 572.527344 C 267.078125 572.171875 267.332031 571.855469 267.6875 571.816406 C 268.042969 571.777344 268.359375 572.03125 268.398438 572.382812 L 269.726562 584.273438 C 269.765625 584.625 269.507812 584.945312 269.15625 584.984375 C 269.132812 584.984375 269.109375 584.988281 269.085938 584.988281 " fill-opacity="1" fill-rule="nonzero"/><path fill="#ffffff" d="M 488.753906 444.257812 C 487.683594 443.078125 483.488281 434.1875 472.074219 430.613281 L 467.542969 429.199219 C 462.480469 427.613281 460.84375 429.1875 455.804688 427.613281 L 434.972656 421.089844 C 431.929688 420.136719 428.6875 421.832031 427.734375 424.875 L 427.605469 425.292969 C 426.652344 428.335938 428.347656 431.574219 431.390625 432.527344 L 486.976562 449.925781 L 488.753906 444.257812 " fill-opacity="1" fill-rule="nonzero"/><path fill="#ffffff" d="M 478.550781 446.183594 L 452.976562 455.761719 C 446.472656 458.195312 439.335938 458.367188 432.722656 456.261719 C 419.902344 452.179688 414.222656 449.914062 404.664062 449.273438 L 403.3125 449.179688 C 399.671875 448.9375 397.21875 445.351562 398.308594 441.871094 L 398.453125 441.410156 C 399.230469 438.921875 401.617188 437.296875 404.21875 437.472656 C 409.871094 437.847656 415.207031 438.054688 423.054688 440.511719 L 430.214844 442.75 C 436.808594 444.8125 443.898438 444.613281 450.363281 442.179688 L 457.347656 439.546875 L 478.550781 446.183594 " fill-opacity="1" fill-rule="nonzero"/><path fill="#ffffff" d="M 463.136719 478.027344 L 426.808594 466.910156 C 422.945312 465.730469 419.382812 463.734375 416.359375 461.0625 L 414.316406 459.253906 C 410.714844 456.070312 410.375 450.570312 413.554688 446.972656 C 414.742188 445.628906 416.792969 445.503906 418.136719 446.6875 L 421.234375 449.425781 C 424.96875 452.726562 429.359375 455.191406 434.121094 456.660156 L 466.679688 466.707031 L 463.136719 478.027344 " fill-opacity="1" fill-rule="nonzero"/><path fill="#ffffff" d="M 469.316406 487.628906 C 463.746094 488.933594 457.929688 488.757812 452.453125 487.113281 L 440.746094 483.597656 C 436.886719 482.414062 433.324219 480.421875 430.296875 477.75 L 428.257812 475.941406 C 424.652344 472.757812 424.3125 467.261719 427.496094 463.65625 C 428.683594 462.316406 430.730469 462.1875 432.074219 463.375 L 440.839844 471.121094 L 483.464844 484.417969 L 469.316406 487.628906 " fill-opacity="1" fill-rule="nonzero"/><path fill="#ffffff" d="M 581.082031 399.441406 L 610.300781 451.46875 L 595.890625 496.054688 C 590.203125 511.710938 571.921875 513.164062 563.667969 510.519531 L 426.074219 466.5 L 434.484375 454.789062 L 462.613281 436.121094 L 560.519531 467.382812 L 581.082031 399.441406 " fill-opacity="1" fill-rule="nonzero"/><path fill="#000000" d="M 457.410156 466.121094 C 457.296875 466.121094 457.183594 466.089844 457.082031 466.03125 L 456.175781 465.496094 C 453.28125 463.785156 450.1875 462.40625 446.980469 461.402344 C 442.945312 460.136719 437.769531 458.515625 437.03125 458.285156 C 433.277344 457.128906 430.078125 456.09375 427.253906 455.179688 C 417.859375 452.132812 412.683594 450.453125 404.621094 449.914062 L 403.273438 449.824219 C 401.339844 449.695312 399.601562 448.703125 398.503906 447.105469 C 397.410156 445.503906 397.113281 443.527344 397.695312 441.675781 L 397.835938 441.222656 C 398.710938 438.441406 401.359375 436.640625 404.257812 436.828125 L 405.414062 436.902344 C 410.789062 437.25 415.863281 437.582031 423.246094 439.894531 L 430.40625 442.136719 C 436.832031 444.148438 443.839844 443.949219 450.140625 441.574219 L 455.460938 439.570312 C 455.796875 439.441406 456.167969 439.613281 456.292969 439.945312 C 456.417969 440.277344 456.25 440.648438 455.917969 440.773438 L 450.59375 442.78125 C 444.027344 445.253906 436.71875 445.460938 430.019531 443.367188 L 422.859375 441.125 C 415.625 438.859375 410.625 438.535156 405.332031 438.1875 L 404.171875 438.113281 C 401.855469 437.957031 399.757812 439.394531 399.066406 441.605469 L 398.921875 442.0625 C 398.464844 443.53125 398.699219 445.105469 399.566406 446.378906 C 400.441406 447.648438 401.820312 448.433594 403.359375 448.539062 L 404.703125 448.632812 C 412.929688 449.179688 418.160156 450.875 427.652344 453.953125 C 430.472656 454.863281 433.667969 455.902344 437.410156 457.058594 C 438.152344 457.285156 443.328125 458.90625 447.367188 460.171875 C 450.667969 461.203125 453.851562 462.625 456.832031 464.390625 L 457.738281 464.925781 C 458.042969 465.105469 458.144531 465.5 457.964844 465.804688 C 457.84375 466.011719 457.628906 466.121094 457.410156 466.121094 " fill-opacity="1" fill-rule="nonzero"/><path fill="#000000" d="M 453.921875 477.273438 C 453.808594 477.273438 453.699219 477.242188 453.597656 477.1875 L 452.488281 476.546875 C 449.613281 474.894531 446.554688 473.570312 443.386719 472.609375 L 426.621094 467.527344 C 422.640625 466.308594 419.046875 464.296875 415.929688 461.542969 L 413.890625 459.738281 C 411.144531 457.3125 410.066406 453.484375 411.144531 449.984375 C 411.246094 449.644531 411.609375 449.449219 411.949219 449.554688 C 412.289062 449.660156 412.476562 450.023438 412.371094 450.359375 C 411.445312 453.378906 412.375 456.679688 414.738281 458.773438 L 416.785156 460.578125 C 419.761719 463.210938 423.195312 465.132812 426.996094 466.292969 L 443.761719 471.378906 C 447.023438 472.367188 450.175781 473.730469 453.128906 475.429688 L 454.238281 476.070312 C 454.550781 476.25 454.65625 476.640625 454.476562 476.949219 C 454.359375 477.15625 454.144531 477.273438 453.921875 477.273438 " fill-opacity="1" fill-rule="nonzero"/><path fill="#000000" d="M 572.304688 512.375 C 568.996094 512.375 565.882812 511.859375 563.335938 511.03125 L 483.148438 484.996094 L 469.464844 488.253906 C 463.792969 489.585938 457.847656 489.40625 452.261719 487.730469 L 440.558594 484.214844 C 436.582031 483 432.988281 480.984375 429.871094 478.234375 L 427.828125 476.425781 C 424.960938 473.894531 423.929688 469.925781 425.199219 466.316406 C 425.316406 465.976562 425.683594 465.804688 426.023438 465.921875 C 426.355469 466.039062 426.53125 466.40625 426.414062 466.742188 C 425.316406 469.855469 426.210938 473.277344 428.679688 475.460938 L 430.726562 477.265625 C 433.703125 479.898438 437.136719 481.820312 440.933594 482.984375 L 452.632812 486.496094 C 458 488.109375 463.71875 488.28125 469.167969 487.003906 L 483.027344 483.703125 C 483.140625 483.675781 483.257812 483.679688 483.375 483.714844 L 563.730469 509.804688 C 572.847656 512.757812 589.472656 511.585938 595.28125 495.835938 L 609.683594 451.269531 C 609.796875 450.933594 610.15625 450.746094 610.492188 450.855469 C 610.832031 450.964844 611.019531 451.328125 610.910156 451.667969 L 596.5 496.257812 C 592.003906 508.449219 581.410156 512.375 572.304688 512.375 " fill-opacity="1" fill-rule="nonzero"/><path fill="#000000" d="M 560.519531 468.027344 C 560.453125 468.027344 560.382812 468.019531 560.320312 467.996094 L 488.550781 444.871094 C 488.445312 444.835938 488.351562 444.777344 488.273438 444.691406 C 488.074219 444.472656 487.839844 444.117188 487.488281 443.578125 C 485.644531 440.769531 481.332031 434.1875 471.882812 431.230469 L 467.351562 429.8125 C 464.910156 429.050781 463.332031 429.046875 461.65625 429.046875 C 459.96875 429.042969 458.222656 429.042969 455.613281 428.226562 L 434.777344 421.707031 C 432.078125 420.863281 429.195312 422.371094 428.347656 425.066406 L 428.21875 425.484375 C 427.808594 426.792969 427.9375 428.183594 428.570312 429.394531 C 429.207031 430.609375 430.273438 431.503906 431.582031 431.914062 L 463.253906 441.828125 C 463.59375 441.933594 463.78125 442.292969 463.671875 442.628906 C 463.570312 442.96875 463.207031 443.164062 462.867188 443.058594 L 431.199219 433.144531 C 429.5625 432.628906 428.222656 431.515625 427.429688 429.996094 C 426.632812 428.476562 426.480469 426.738281 426.988281 425.101562 L 427.121094 424.683594 C 428.179688 421.304688 431.785156 419.417969 435.160156 420.476562 L 455.996094 426.996094 C 458.421875 427.753906 459.992188 427.753906 461.660156 427.757812 C 463.355469 427.757812 465.109375 427.757812 467.734375 428.582031 L 472.269531 430.003906 C 482.15625 433.097656 486.8125 440.195312 488.5625 442.871094 C 488.789062 443.214844 488.988281 443.519531 489.128906 443.703125 L 560.09375 466.570312 L 580.46875 399.253906 C 580.566406 398.910156 580.929688 398.722656 581.269531 398.824219 C 581.609375 398.929688 581.800781 399.289062 581.699219 399.628906 L 561.132812 467.570312 C 561.085938 467.734375 560.96875 467.875 560.816406 467.953125 C 560.722656 468.003906 560.625 468.027344 560.519531 468.027344 " fill-opacity="1" fill-rule="nonzero"/><path fill="#84005b" d="M 615.949219 471.492188 L 559.800781 454.355469 L 582.339844 380.511719 C 587.074219 365.007812 603.480469 356.277344 618.984375 361.007812 C 634.488281 365.742188 643.21875 382.144531 638.484375 397.648438 L 615.949219 471.492188 " fill-opacity="1" fill-rule="nonzero"/><path fill="#000000" d="M 615.953125 472.136719 C 615.886719 472.136719 615.824219 472.125 615.761719 472.109375 L 559.613281 454.972656 C 559.277344 454.867188 559.085938 454.507812 559.1875 454.167969 L 575.101562 402.03125 C 575.203125 401.695312 575.5625 401.496094 575.90625 401.601562 C 576.242188 401.707031 576.4375 402.066406 576.332031 402.40625 L 560.605469 453.929688 L 615.523438 470.691406 L 637.871094 397.460938 C 640.113281 390.128906 639.359375 382.359375 635.753906 375.589844 C 632.15625 368.820312 626.132812 363.859375 618.796875 361.625 C 616.503906 360.921875 614.140625 360.511719 611.773438 360.398438 L 581.082031 360.398438 C 580.726562 360.398438 580.4375 360.109375 580.4375 359.757812 C 580.4375 359.398438 580.726562 359.109375 581.082031 359.109375 L 611.804688 359.109375 C 614.308594 359.230469 616.78125 359.660156 619.171875 360.390625 C 626.835938 362.730469 633.128906 367.910156 636.890625 374.984375 C 640.660156 382.058594 641.441406 390.171875 639.105469 397.839844 L 616.566406 471.679688 C 616.480469 471.957031 616.226562 472.136719 615.953125 472.136719 " fill-opacity="1" fill-rule="nonzero"/><path fill="#000000" d="M 577.40625 309.613281 C 577.40625 323.683594 571.382812 335.09375 563.945312 335.09375 C 556.507812 335.09375 550.476562 323.683594 550.476562 309.613281 C 550.476562 295.542969 556.507812 284.132812 563.945312 284.132812 C 571.382812 284.132812 577.40625 295.542969 577.40625 309.613281 " fill-opacity="1" fill-rule="nonzero"/><path fill="#ffffff" d="M 542.429688 386.007812 L 564.207031 360.367188 L 564.207031 319.554688 L 542.429688 319.554688 L 542.429688 386.007812 " fill-opacity="1" fill-rule="nonzero"/><path fill="#ffffff" d="M 564.207031 319.46875 C 564.207031 331.015625 555.660156 340.375 545.121094 340.375 C 534.578125 340.375 526.035156 331.015625 526.035156 319.46875 C 526.035156 307.925781 534.582031 298.5625 545.125 298.5625 C 555.664062 298.5625 564.210938 307.925781 564.207031 319.46875 " fill-opacity="1" fill-rule="nonzero"/><path fill="#ff96fb" d="M 549.269531 331.351562 C 547.902344 332.605469 546.140625 333.453125 544.148438 333.65625 C 539.710938 334.109375 535.714844 331.226562 534.613281 327.046875 L 549.269531 331.351562 " fill-opacity="1" fill-rule="nonzero"/><path fill="#000000" d="M 544.59375 341.019531 C 534.003906 341.019531 525.386719 331.613281 525.386719 320.050781 C 525.386719 308.484375 534.003906 299.078125 544.59375 299.078125 C 554.488281 299.078125 562.703125 307.175781 563.699219 317.910156 C 563.730469 318.265625 563.46875 318.582031 563.117188 318.613281 C 562.765625 318.640625 562.449219 318.386719 562.417969 318.03125 C 561.484375 307.960938 553.820312 300.367188 544.59375 300.367188 C 534.714844 300.367188 526.679688 309.195312 526.679688 320.050781 C 526.679688 330.902344 534.714844 339.730469 544.59375 339.730469 C 546.40625 339.730469 548.1875 339.4375 549.90625 338.855469 C 550.242188 338.734375 550.609375 338.917969 550.71875 339.253906 C 550.835938 339.59375 550.65625 339.957031 550.320312 340.070312 C 548.472656 340.703125 546.542969 341.019531 544.59375 341.019531 " fill-opacity="1" fill-rule="nonzero"/><path fill="#000000" d="M 544.132812 311.902344 L 526.109375 320.773438 C 526.074219 320.246094 526.035156 319.71875 526.035156 319.179688 C 526.035156 307.792969 534.46875 298.5625 544.859375 298.5625 C 556.277344 298.5625 564.996094 308.25 564.996094 319.636719 C 564.996094 320.410156 564.3125 321.167969 564.230469 321.917969 L 544.132812 311.902344 " fill-opacity="1" fill-rule="nonzero"/><path fill="#000000" d="M 551.566406 351.328125 C 551.207031 351.328125 550.921875 351.042969 550.921875 350.683594 C 550.921875 348.429688 552.515625 347.304688 553.925781 346.3125 C 555.242188 345.386719 556.382812 344.585938 556.382812 342.996094 C 556.382812 341.40625 555.246094 340.605469 553.925781 339.679688 C 552.515625 338.6875 550.921875 337.5625 550.921875 335.308594 C 550.921875 333.050781 552.515625 331.929688 553.925781 330.941406 C 555.246094 330.011719 556.382812 329.210938 556.382812 327.625 C 556.382812 326.039062 555.246094 325.238281 553.925781 324.308594 C 552.515625 323.320312 550.921875 322.195312 550.921875 319.9375 C 550.921875 317.683594 552.515625 316.5625 553.925781 315.570312 C 555.246094 314.644531 556.382812 313.84375 556.382812 312.257812 C 556.382812 311.902344 556.671875 311.613281 557.027344 311.613281 C 557.382812 311.613281 557.671875 311.902344 557.671875 312.257812 C 557.671875 314.507812 556.074219 315.632812 554.667969 316.625 C 553.347656 317.554688 552.210938 318.351562 552.210938 319.9375 C 552.210938 321.527344 553.347656 322.328125 554.671875 323.257812 C 556.074219 324.246094 557.671875 325.367188 557.671875 327.625 C 557.671875 329.878906 556.074219 331 554.667969 331.996094 C 553.347656 332.917969 552.210938 333.71875 552.210938 335.308594 C 552.210938 336.894531 553.347656 337.699219 554.667969 338.625 C 556.074219 339.617188 557.671875 340.738281 557.671875 342.996094 C 557.671875 345.253906 556.074219 346.375 554.667969 347.367188 C 553.347656 348.296875 552.210938 349.097656 552.210938 350.683594 C 552.210938 351.042969 551.921875 351.328125 551.566406 351.328125 " fill-opacity="1" fill-rule="nonzero"/><path fill="#80008b" d="M 135.332031 392.292969 L 144.328125 395.867188 L 156.175781 369.125 L 144.308594 365.855469 Z M 144.667969 397.339844 C 144.585938 397.339844 144.507812 397.324219 144.429688 397.296875 L 134.289062 393.261719 C 133.972656 393.136719 133.804688 392.785156 133.917969 392.457031 L 143.28125 364.867188 C 143.390625 364.546875 143.734375 364.363281 144.0625 364.453125 L 157.238281 368.078125 C 157.417969 368.128906 157.566406 368.253906 157.648438 368.421875 C 157.730469 368.59375 157.730469 368.789062 157.65625 368.960938 L 145.253906 396.957031 C 145.148438 397.195312 144.914062 397.339844 144.667969 397.339844 " fill-opacity="1" fill-rule="nonzero"/><path fill="#80008b" d="M 237.597656 466.121094 L 191.558594 466.121094 C 173.96875 466.121094 157.976562 457.941406 147.6875 443.675781 C 137.398438 429.414062 134.675781 411.660156 140.222656 394.96875 C 140.335938 394.632812 140.699219 394.445312 141.035156 394.558594 C 141.375 394.671875 141.554688 395.035156 141.445312 395.375 C 136.03125 411.667969 138.6875 429 148.734375 442.925781 C 158.777344 456.847656 174.386719 464.835938 191.558594 464.835938 L 237.597656 464.835938 C 237.953125 464.835938 238.242188 465.121094 238.242188 465.476562 C 238.242188 465.835938 237.953125 466.121094 237.597656 466.121094 " fill-opacity="1" fill-rule="nonzero"/><path fill="#80008b" d="M 178.300781 159.828125 C 158.929688 159.828125 140.960938 172.53125 135.238281 191.960938 C 128.394531 215.210938 141.503906 239.875 164.503906 247.269531 L 189.808594 161.34375 C 185.972656 160.316406 182.109375 159.828125 178.300781 159.828125 Z M 164.9375 248.722656 C 164.875 248.722656 164.8125 248.714844 164.75 248.695312 C 140.691406 241.347656 126.894531 215.734375 134.003906 191.597656 C 141.109375 167.464844 166.582031 153.417969 190.789062 160.277344 C 190.953125 160.324219 191.09375 160.4375 191.175781 160.589844 C 191.257812 160.742188 191.277344 160.917969 191.230469 161.082031 L 165.554688 248.257812 C 165.507812 248.425781 165.394531 248.566406 165.242188 248.648438 C 165.148438 248.699219 165.042969 248.722656 164.9375 248.722656 " fill-opacity="1" fill-rule="nonzero"/><path fill="#80008b" d="M 165.757812 247.574219 L 295.6875 271.578125 L 313.226562 212.011719 L 191.027344 161.765625 Z M 296.140625 272.957031 C 296.101562 272.957031 296.0625 272.957031 296.023438 272.949219 L 164.820312 248.710938 C 164.640625 248.679688 164.484375 248.570312 164.390625 248.417969 C 164.292969 248.261719 164.269531 248.070312 164.320312 247.894531 L 189.996094 160.714844 C 190.046875 160.539062 190.167969 160.394531 190.332031 160.320312 C 190.5 160.238281 190.6875 160.234375 190.855469 160.304688 L 314.253906 211.042969 C 314.558594 211.164062 314.71875 211.503906 314.625 211.816406 L 296.757812 272.496094 C 296.675781 272.773438 296.421875 272.957031 296.140625 272.957031 " fill-opacity="1" fill-rule="nonzero"/><path fill="#80008b" d="M 296.886719 272.054688 L 332.066406 296.367188 L 357.21875 210.957031 L 314.476562 212.324219 Z M 332.433594 298.046875 C 332.304688 298.046875 332.175781 298.011719 332.066406 297.933594 L 295.769531 272.847656 C 295.542969 272.691406 295.441406 272.402344 295.519531 272.136719 L 313.371094 211.515625 C 313.449219 211.246094 313.691406 211.058594 313.96875 211.054688 L 358.070312 209.640625 C 358.28125 209.625 358.472656 209.726562 358.597656 209.886719 C 358.726562 210.054688 358.765625 210.265625 358.707031 210.464844 L 333.050781 297.585938 C 332.992188 297.785156 332.84375 297.945312 332.648438 298.011719 C 332.578125 298.039062 332.507812 298.046875 332.433594 298.046875 " fill-opacity="1" fill-rule="nonzero"/><path fill="#80008b" d="M 177.6875 180.425781 C 173.429688 180.425781 169.214844 181.488281 165.375 183.585938 C 159.320312 186.882812 154.917969 192.34375 152.96875 198.953125 C 148.949219 212.597656 156.785156 226.972656 170.433594 230.992188 C 184.082031 235.011719 198.453125 227.179688 202.472656 213.53125 C 204.421875 206.917969 203.675781 199.945312 200.378906 193.894531 C 197.078125 187.839844 191.621094 183.4375 185.007812 181.488281 C 182.597656 180.777344 180.132812 180.425781 177.6875 180.425781 Z M 177.707031 233.335938 C 175.179688 233.335938 172.613281 232.976562 170.066406 232.226562 C 155.738281 228.007812 147.515625 212.914062 151.734375 198.585938 C 153.777344 191.648438 158.402344 185.917969 164.757812 182.453125 C 171.109375 178.992188 178.429688 178.210938 185.375 180.253906 C 192.316406 182.300781 198.046875 186.921875 201.507812 193.277344 C 204.972656 199.632812 205.753906 206.953125 203.707031 213.894531 C 200.238281 225.679688 189.414062 233.335938 177.707031 233.335938 " fill-opacity="1" fill-rule="nonzero"/><path fill="#80008b" d="M 177.691406 185.945312 C 174.34375 185.945312 171.035156 186.78125 168.011719 188.425781 C 163.253906 191.019531 159.789062 195.3125 158.257812 200.511719 C 156.726562 205.707031 157.3125 211.195312 159.90625 215.953125 C 162.5 220.710938 166.789062 224.175781 171.988281 225.707031 C 177.1875 227.234375 182.671875 226.652344 187.429688 224.058594 C 192.1875 221.464844 195.652344 217.171875 197.183594 211.972656 C 198.714844 206.773438 198.132812 201.289062 195.535156 196.53125 C 192.941406 191.773438 188.652344 188.3125 183.453125 186.78125 C 181.554688 186.222656 179.617188 185.945312 177.691406 185.945312 Z M 177.75 227.828125 C 175.703125 227.828125 173.644531 227.535156 171.625 226.941406 C 166.097656 225.3125 161.53125 221.628906 158.773438 216.566406 C 156.015625 211.507812 155.394531 205.675781 157.023438 200.148438 C 158.652344 194.617188 162.335938 190.054688 167.394531 187.296875 C 172.457031 184.539062 178.289062 183.914062 183.816406 185.546875 C 189.347656 187.171875 193.910156 190.855469 196.667969 195.917969 C 199.425781 200.976562 200.046875 206.808594 198.421875 212.339844 C 196.789062 217.867188 193.105469 222.429688 188.046875 225.1875 C 184.835938 226.9375 181.3125 227.828125 177.75 227.828125 " fill-opacity="1" fill-rule="nonzero"/><path fill="#80008b" d="M 163.164062 201.953125 L 163.171875 201.953125 Z M 177.703125 191.703125 C 175.304688 191.703125 172.933594 192.300781 170.769531 193.480469 C 167.359375 195.339844 164.878906 198.414062 163.78125 202.132812 C 162.6875 205.859375 163.105469 209.785156 164.960938 213.195312 C 166.820312 216.601562 169.894531 219.082031 173.617188 220.175781 C 177.339844 221.273438 181.269531 220.855469 184.675781 219 C 188.082031 217.140625 190.5625 214.070312 191.660156 210.34375 C 192.757812 206.625 192.339844 202.695312 190.480469 199.289062 C 188.625 195.878906 185.550781 193.398438 181.828125 192.300781 C 180.46875 191.902344 179.082031 191.703125 177.703125 191.703125 Z M 177.746094 222.066406 C 176.242188 222.066406 174.734375 221.851562 173.253906 221.414062 C 169.199219 220.222656 165.855469 217.519531 163.832031 213.8125 C 161.808594 210.101562 161.351562 205.824219 162.546875 201.773438 C 163.742188 197.71875 166.441406 194.375 170.152344 192.347656 C 173.863281 190.328125 178.136719 189.875 182.191406 191.066406 C 186.242188 192.261719 189.589844 194.960938 191.609375 198.671875 C 193.632812 202.382812 194.089844 206.65625 192.894531 210.707031 C 191.703125 214.765625 189 218.109375 185.292969 220.128906 C 182.9375 221.414062 180.351562 222.066406 177.746094 222.066406 " fill-opacity="1" fill-rule="nonzero"/><path fill="#80008b" d="M 177.726562 196.980469 C 173.722656 196.980469 170.019531 199.597656 168.835938 203.625 C 167.390625 208.527344 170.203125 213.683594 175.105469 215.128906 C 180.003906 216.574219 185.164062 213.757812 186.605469 208.859375 C 188.050781 203.960938 185.238281 198.800781 180.335938 197.355469 C 179.46875 197.101562 178.589844 196.980469 177.726562 196.980469 Z M 177.714844 216.792969 C 176.730469 216.792969 175.730469 216.65625 174.742188 216.367188 C 169.160156 214.722656 165.957031 208.84375 167.597656 203.265625 C 169.242188 197.683594 175.121094 194.480469 180.703125 196.121094 C 186.285156 197.765625 189.488281 203.640625 187.84375 209.222656 C 186.488281 213.8125 182.273438 216.792969 177.714844 216.792969 " fill-opacity="1" fill-rule="nonzero"/><path fill="#80008b" d="M 177.722656 202.234375 C 175.992188 202.234375 174.394531 203.367188 173.882812 205.105469 C 173.257812 207.222656 174.472656 209.453125 176.589844 210.078125 C 178.707031 210.703125 180.9375 209.488281 181.5625 207.371094 C 182.183594 205.253906 180.96875 203.023438 178.851562 202.398438 C 178.476562 202.289062 178.097656 202.234375 177.722656 202.234375 Z M 177.71875 211.53125 C 177.226562 211.53125 176.722656 211.460938 176.226562 211.3125 C 173.429688 210.492188 171.820312 207.542969 172.644531 204.746094 C 173.46875 201.949219 176.417969 200.339844 179.214844 201.164062 C 182.015625 201.988281 183.621094 204.9375 182.796875 207.734375 C 182.121094 210.035156 180.003906 211.53125 177.71875 211.53125 " fill-opacity="1" fill-rule="nonzero"/><path fill="#80008b" d="M 158.804688 369.464844 C 157.511719 369.464844 156.207031 369.28125 154.925781 368.902344 L 144.796875 365.921875 C 141.59375 364.976562 139.085938 362.511719 138.089844 359.320312 C 137.09375 356.132812 137.75 352.679688 139.847656 350.078125 C 162.980469 321.398438 171.894531 284.269531 164.308594 248.210938 C 164.234375 247.867188 164.457031 247.519531 164.804688 247.449219 C 165.152344 247.375 165.496094 247.597656 165.570312 247.945312 C 173.234375 284.382812 164.226562 321.90625 140.851562 350.886719 C 139.023438 353.152344 138.453125 356.164062 139.320312 358.9375 C 140.1875 361.71875 142.371094 363.863281 145.160156 364.683594 L 155.289062 367.667969 C 159.726562 368.96875 164.480469 367.71875 167.695312 364.394531 L 180.039062 351.628906 C 204.652344 326.175781 213.527344 289.320312 203.199219 255.449219 C 203.09375 255.109375 203.285156 254.746094 203.625 254.648438 C 203.96875 254.539062 204.328125 254.734375 204.429688 255.074219 C 214.894531 289.390625 205.902344 326.730469 180.964844 352.527344 L 168.621094 365.289062 C 166 368 162.453125 369.464844 158.804688 369.464844 " fill-opacity="1" fill-rule="nonzero"/></svg>